<?xml version="1.0" encoding="utf-8" standalone="no"?>
<!DOCTYPE svg PUBLIC "-//W3C//DTD SVG 1.1//EN"
  "http://www.w3.org/Graphics/SVG/1.1/DTD/svg11.dtd">
<!-- Created with matplotlib (https://matplotlib.org/) -->
<svg height="558.834375pt" version="1.1" viewBox="0 0 845.819375 558.834375" width="845.819375pt" xmlns="http://www.w3.org/2000/svg" xmlns:xlink="http://www.w3.org/1999/xlink">
 <defs>
  <style type="text/css">
*{stroke-linecap:butt;stroke-linejoin:round;}
  </style>
 </defs>
 <g id="figure_1">
  <g id="patch_1">
   <path d="M 0 558.834375 
L 845.819375 558.834375 
L 845.819375 0 
L 0 0 
z
" style="fill:#ffffff;"/>
  </g>
  <g id="axes_1">
   <g id="patch_2">
    <path d="M 51.378125 521.278125 
L 720.978125 521.278125 
L 720.978125 22.318125 
L 51.378125 22.318125 
z
" style="fill:#ffffff;"/>
   </g>
   <g id="matplotlib.axis_1">
    <g id="xtick_1">
     <g id="line2d_1">
      <path clip-path="url(#p1ce248137a)" d="M 81.43904 521.278125 
L 81.43904 22.318125 
" style="fill:none;stroke:#a6a6a6;stroke-linecap:square;stroke-width:0.8;"/>
     </g>
     <g id="line2d_2">
      <defs>
       <path d="M 0 0 
L 0 3.5 
" id="m7aac5f4745" style="stroke:#000000;stroke-width:0.8;"/>
      </defs>
      <g>
       <use style="stroke:#000000;stroke-width:0.8;" x="81.43904" xlink:href="#m7aac5f4745" y="521.278125"/>
      </g>
     </g>
     <g id="text_1">
      <!-- 0.0 -->
      <defs>
       <path d="M 31.78125 66.40625 
Q 24.171875 66.40625 20.328125 58.90625 
Q 16.5 51.421875 16.5 36.375 
Q 16.5 21.390625 20.328125 13.890625 
Q 24.171875 6.390625 31.78125 6.390625 
Q 39.453125 6.390625 43.28125 13.890625 
Q 47.125 21.390625 47.125 36.375 
Q 47.125 51.421875 43.28125 58.90625 
Q 39.453125 66.40625 31.78125 66.40625 
z
M 31.78125 74.21875 
Q 44.046875 74.21875 50.515625 64.515625 
Q 56.984375 54.828125 56.984375 36.375 
Q 56.984375 17.96875 50.515625 8.265625 
Q 44.046875 -1.421875 31.78125 -1.421875 
Q 19.53125 -1.421875 13.0625 8.265625 
Q 6.59375 17.96875 6.59375 36.375 
Q 6.59375 54.828125 13.0625 64.515625 
Q 19.53125 74.21875 31.78125 74.21875 
z
" id="DejaVuSans-48"/>
       <path d="M 10.6875 12.40625 
L 21 12.40625 
L 21 0 
L 10.6875 0 
z
" id="DejaVuSans-46"/>
      </defs>
      <g transform="translate(73.487478 535.876562)scale(0.1 -0.1)">
       <use xlink:href="#DejaVuSans-48"/>
       <use x="63.623047" xlink:href="#DejaVuSans-46"/>
       <use x="95.410156" xlink:href="#DejaVuSans-48"/>
      </g>
     </g>
    </g>
    <g id="xtick_2">
     <g id="line2d_3">
      <path clip-path="url(#p1ce248137a)" d="M 206.588562 521.278125 
L 206.588562 22.318125 
" style="fill:none;stroke:#a6a6a6;stroke-linecap:square;stroke-width:0.8;"/>
     </g>
     <g id="line2d_4">
      <g>
       <use style="stroke:#000000;stroke-width:0.8;" x="206.588562" xlink:href="#m7aac5f4745" y="521.278125"/>
      </g>
     </g>
     <g id="text_2">
      <!-- 0.2 -->
      <defs>
       <path d="M 19.1875 8.296875 
L 53.609375 8.296875 
L 53.609375 0 
L 7.328125 0 
L 7.328125 8.296875 
Q 12.9375 14.109375 22.625 23.890625 
Q 32.328125 33.6875 34.8125 36.53125 
Q 39.546875 41.84375 41.421875 45.53125 
Q 43.3125 49.21875 43.3125 52.78125 
Q 43.3125 58.59375 39.234375 62.25 
Q 35.15625 65.921875 28.609375 65.921875 
Q 23.96875 65.921875 18.8125 64.3125 
Q 13.671875 62.703125 7.8125 59.421875 
L 7.8125 69.390625 
Q 13.765625 71.78125 18.9375 73 
Q 24.125 74.21875 28.421875 74.21875 
Q 39.75 74.21875 46.484375 68.546875 
Q 53.21875 62.890625 53.21875 53.421875 
Q 53.21875 48.921875 51.53125 44.890625 
Q 49.859375 40.875 45.40625 35.40625 
Q 44.1875 33.984375 37.640625 27.21875 
Q 31.109375 20.453125 19.1875 8.296875 
z
" id="DejaVuSans-50"/>
      </defs>
      <g transform="translate(198.636999 535.876562)scale(0.1 -0.1)">
       <use xlink:href="#DejaVuSans-48"/>
       <use x="63.623047" xlink:href="#DejaVuSans-46"/>
       <use x="95.410156" xlink:href="#DejaVuSans-50"/>
      </g>
     </g>
    </g>
    <g id="xtick_3">
     <g id="line2d_5">
      <path clip-path="url(#p1ce248137a)" d="M 331.738083 521.278125 
L 331.738083 22.318125 
" style="fill:none;stroke:#a6a6a6;stroke-linecap:square;stroke-width:0.8;"/>
     </g>
     <g id="line2d_6">
      <g>
       <use style="stroke:#000000;stroke-width:0.8;" x="331.738083" xlink:href="#m7aac5f4745" y="521.278125"/>
      </g>
     </g>
     <g id="text_3">
      <!-- 0.4 -->
      <defs>
       <path d="M 37.796875 64.3125 
L 12.890625 25.390625 
L 37.796875 25.390625 
z
M 35.203125 72.90625 
L 47.609375 72.90625 
L 47.609375 25.390625 
L 58.015625 25.390625 
L 58.015625 17.1875 
L 47.609375 17.1875 
L 47.609375 0 
L 37.796875 0 
L 37.796875 17.1875 
L 4.890625 17.1875 
L 4.890625 26.703125 
z
" id="DejaVuSans-52"/>
      </defs>
      <g transform="translate(323.786521 535.876562)scale(0.1 -0.1)">
       <use xlink:href="#DejaVuSans-48"/>
       <use x="63.623047" xlink:href="#DejaVuSans-46"/>
       <use x="95.410156" xlink:href="#DejaVuSans-52"/>
      </g>
     </g>
    </g>
    <g id="xtick_4">
     <g id="line2d_7">
      <path clip-path="url(#p1ce248137a)" d="M 456.887605 521.278125 
L 456.887605 22.318125 
" style="fill:none;stroke:#a6a6a6;stroke-linecap:square;stroke-width:0.8;"/>
     </g>
     <g id="line2d_8">
      <g>
       <use style="stroke:#000000;stroke-width:0.8;" x="456.887605" xlink:href="#m7aac5f4745" y="521.278125"/>
      </g>
     </g>
     <g id="text_4">
      <!-- 0.6 -->
      <defs>
       <path d="M 33.015625 40.375 
Q 26.375 40.375 22.484375 35.828125 
Q 18.609375 31.296875 18.609375 23.390625 
Q 18.609375 15.53125 22.484375 10.953125 
Q 26.375 6.390625 33.015625 6.390625 
Q 39.65625 6.390625 43.53125 10.953125 
Q 47.40625 15.53125 47.40625 23.390625 
Q 47.40625 31.296875 43.53125 35.828125 
Q 39.65625 40.375 33.015625 40.375 
z
M 52.59375 71.296875 
L 52.59375 62.3125 
Q 48.875 64.0625 45.09375 64.984375 
Q 41.3125 65.921875 37.59375 65.921875 
Q 27.828125 65.921875 22.671875 59.328125 
Q 17.53125 52.734375 16.796875 39.40625 
Q 19.671875 43.65625 24.015625 45.921875 
Q 28.375 48.1875 33.59375 48.1875 
Q 44.578125 48.1875 50.953125 41.515625 
Q 57.328125 34.859375 57.328125 23.390625 
Q 57.328125 12.15625 50.6875 5.359375 
Q 44.046875 -1.421875 33.015625 -1.421875 
Q 20.359375 -1.421875 13.671875 8.265625 
Q 6.984375 17.96875 6.984375 36.375 
Q 6.984375 53.65625 15.1875 63.9375 
Q 23.390625 74.21875 37.203125 74.21875 
Q 40.921875 74.21875 44.703125 73.484375 
Q 48.484375 72.75 52.59375 71.296875 
z
" id="DejaVuSans-54"/>
      </defs>
      <g transform="translate(448.936042 535.876562)scale(0.1 -0.1)">
       <use xlink:href="#DejaVuSans-48"/>
       <use x="63.623047" xlink:href="#DejaVuSans-46"/>
       <use x="95.410156" xlink:href="#DejaVuSans-54"/>
      </g>
     </g>
    </g>
    <g id="xtick_5">
     <g id="line2d_9">
      <path clip-path="url(#p1ce248137a)" d="M 582.037126 521.278125 
L 582.037126 22.318125 
" style="fill:none;stroke:#a6a6a6;stroke-linecap:square;stroke-width:0.8;"/>
     </g>
     <g id="line2d_10">
      <g>
       <use style="stroke:#000000;stroke-width:0.8;" x="582.037126" xlink:href="#m7aac5f4745" y="521.278125"/>
      </g>
     </g>
     <g id="text_5">
      <!-- 0.8 -->
      <defs>
       <path d="M 31.78125 34.625 
Q 24.75 34.625 20.71875 30.859375 
Q 16.703125 27.09375 16.703125 20.515625 
Q 16.703125 13.921875 20.71875 10.15625 
Q 24.75 6.390625 31.78125 6.390625 
Q 38.8125 6.390625 42.859375 10.171875 
Q 46.921875 13.96875 46.921875 20.515625 
Q 46.921875 27.09375 42.890625 30.859375 
Q 38.875 34.625 31.78125 34.625 
z
M 21.921875 38.8125 
Q 15.578125 40.375 12.03125 44.71875 
Q 8.5 49.078125 8.5 55.328125 
Q 8.5 64.0625 14.71875 69.140625 
Q 20.953125 74.21875 31.78125 74.21875 
Q 42.671875 74.21875 48.875 69.140625 
Q 55.078125 64.0625 55.078125 55.328125 
Q 55.078125 49.078125 51.53125 44.71875 
Q 48 40.375 41.703125 38.8125 
Q 48.828125 37.15625 52.796875 32.3125 
Q 56.78125 27.484375 56.78125 20.515625 
Q 56.78125 9.90625 50.3125 4.234375 
Q 43.84375 -1.421875 31.78125 -1.421875 
Q 19.734375 -1.421875 13.25 4.234375 
Q 6.78125 9.90625 6.78125 20.515625 
Q 6.78125 27.484375 10.78125 32.3125 
Q 14.796875 37.15625 21.921875 38.8125 
z
M 18.3125 54.390625 
Q 18.3125 48.734375 21.84375 45.5625 
Q 25.390625 42.390625 31.78125 42.390625 
Q 38.140625 42.390625 41.71875 45.5625 
Q 45.3125 48.734375 45.3125 54.390625 
Q 45.3125 60.0625 41.71875 63.234375 
Q 38.140625 66.40625 31.78125 66.40625 
Q 25.390625 66.40625 21.84375 63.234375 
Q 18.3125 60.0625 18.3125 54.390625 
z
" id="DejaVuSans-56"/>
      </defs>
      <g transform="translate(574.085564 535.876562)scale(0.1 -0.1)">
       <use xlink:href="#DejaVuSans-48"/>
       <use x="63.623047" xlink:href="#DejaVuSans-46"/>
       <use x="95.410156" xlink:href="#DejaVuSans-56"/>
      </g>
     </g>
    </g>
    <g id="xtick_6">
     <g id="line2d_11">
      <path clip-path="url(#p1ce248137a)" d="M 707.186648 521.278125 
L 707.186648 22.318125 
" style="fill:none;stroke:#a6a6a6;stroke-linecap:square;stroke-width:0.8;"/>
     </g>
     <g id="line2d_12">
      <g>
       <use style="stroke:#000000;stroke-width:0.8;" x="707.186648" xlink:href="#m7aac5f4745" y="521.278125"/>
      </g>
     </g>
     <g id="text_6">
      <!-- 1.0 -->
      <defs>
       <path d="M 12.40625 8.296875 
L 28.515625 8.296875 
L 28.515625 63.921875 
L 10.984375 60.40625 
L 10.984375 69.390625 
L 28.421875 72.90625 
L 38.28125 72.90625 
L 38.28125 8.296875 
L 54.390625 8.296875 
L 54.390625 0 
L 12.40625 0 
z
" id="DejaVuSans-49"/>
      </defs>
      <g transform="translate(699.235085 535.876562)scale(0.1 -0.1)">
       <use xlink:href="#DejaVuSans-49"/>
       <use x="63.623047" xlink:href="#DejaVuSans-46"/>
       <use x="95.410156" xlink:href="#DejaVuSans-48"/>
      </g>
     </g>
    </g>
    <g id="text_7">
     <!-- Accuracy-R@1 -->
     <defs>
      <path d="M 34.1875 63.1875 
L 20.796875 26.90625 
L 47.609375 26.90625 
z
M 28.609375 72.90625 
L 39.796875 72.90625 
L 67.578125 0 
L 57.328125 0 
L 50.6875 18.703125 
L 17.828125 18.703125 
L 11.1875 0 
L 0.78125 0 
z
" id="DejaVuSans-65"/>
      <path d="M 48.78125 52.59375 
L 48.78125 44.1875 
Q 44.96875 46.296875 41.140625 47.34375 
Q 37.3125 48.390625 33.40625 48.390625 
Q 24.65625 48.390625 19.8125 42.84375 
Q 14.984375 37.3125 14.984375 27.296875 
Q 14.984375 17.28125 19.8125 11.734375 
Q 24.65625 6.203125 33.40625 6.203125 
Q 37.3125 6.203125 41.140625 7.25 
Q 44.96875 8.296875 48.78125 10.40625 
L 48.78125 2.09375 
Q 45.015625 0.34375 40.984375 -0.53125 
Q 36.96875 -1.421875 32.421875 -1.421875 
Q 20.0625 -1.421875 12.78125 6.34375 
Q 5.515625 14.109375 5.515625 27.296875 
Q 5.515625 40.671875 12.859375 48.328125 
Q 20.21875 56 33.015625 56 
Q 37.15625 56 41.109375 55.140625 
Q 45.0625 54.296875 48.78125 52.59375 
z
" id="DejaVuSans-99"/>
      <path d="M 8.5 21.578125 
L 8.5 54.6875 
L 17.484375 54.6875 
L 17.484375 21.921875 
Q 17.484375 14.15625 20.5 10.265625 
Q 23.53125 6.390625 29.59375 6.390625 
Q 36.859375 6.390625 41.078125 11.03125 
Q 45.3125 15.671875 45.3125 23.6875 
L 45.3125 54.6875 
L 54.296875 54.6875 
L 54.296875 0 
L 45.3125 0 
L 45.3125 8.40625 
Q 42.046875 3.421875 37.71875 1 
Q 33.40625 -1.421875 27.6875 -1.421875 
Q 18.265625 -1.421875 13.375 4.4375 
Q 8.5 10.296875 8.5 21.578125 
z
M 31.109375 56 
z
" id="DejaVuSans-117"/>
      <path d="M 41.109375 46.296875 
Q 39.59375 47.171875 37.8125 47.578125 
Q 36.03125 48 33.890625 48 
Q 26.265625 48 22.1875 43.046875 
Q 18.109375 38.09375 18.109375 28.8125 
L 18.109375 0 
L 9.078125 0 
L 9.078125 54.6875 
L 18.109375 54.6875 
L 18.109375 46.1875 
Q 20.953125 51.171875 25.484375 53.578125 
Q 30.03125 56 36.53125 56 
Q 37.453125 56 38.578125 55.875 
Q 39.703125 55.765625 41.0625 55.515625 
z
" id="DejaVuSans-114"/>
      <path d="M 34.28125 27.484375 
Q 23.390625 27.484375 19.1875 25 
Q 14.984375 22.515625 14.984375 16.5 
Q 14.984375 11.71875 18.140625 8.90625 
Q 21.296875 6.109375 26.703125 6.109375 
Q 34.1875 6.109375 38.703125 11.40625 
Q 43.21875 16.703125 43.21875 25.484375 
L 43.21875 27.484375 
z
M 52.203125 31.203125 
L 52.203125 0 
L 43.21875 0 
L 43.21875 8.296875 
Q 40.140625 3.328125 35.546875 0.953125 
Q 30.953125 -1.421875 24.3125 -1.421875 
Q 15.921875 -1.421875 10.953125 3.296875 
Q 6 8.015625 6 15.921875 
Q 6 25.140625 12.171875 29.828125 
Q 18.359375 34.515625 30.609375 34.515625 
L 43.21875 34.515625 
L 43.21875 35.40625 
Q 43.21875 41.609375 39.140625 45 
Q 35.0625 48.390625 27.6875 48.390625 
Q 23 48.390625 18.546875 47.265625 
Q 14.109375 46.140625 10.015625 43.890625 
L 10.015625 52.203125 
Q 14.9375 54.109375 19.578125 55.046875 
Q 24.21875 56 28.609375 56 
Q 40.484375 56 46.34375 49.84375 
Q 52.203125 43.703125 52.203125 31.203125 
z
" id="DejaVuSans-97"/>
      <path d="M 32.171875 -5.078125 
Q 28.375 -14.84375 24.75 -17.8125 
Q 21.140625 -20.796875 15.09375 -20.796875 
L 7.90625 -20.796875 
L 7.90625 -13.28125 
L 13.1875 -13.28125 
Q 16.890625 -13.28125 18.9375 -11.515625 
Q 21 -9.765625 23.484375 -3.21875 
L 25.09375 0.875 
L 2.984375 54.6875 
L 12.5 54.6875 
L 29.59375 11.921875 
L 46.6875 54.6875 
L 56.203125 54.6875 
z
" id="DejaVuSans-121"/>
      <path d="M 4.890625 31.390625 
L 31.203125 31.390625 
L 31.203125 23.390625 
L 4.890625 23.390625 
z
" id="DejaVuSans-45"/>
      <path d="M 44.390625 34.1875 
Q 47.5625 33.109375 50.5625 29.59375 
Q 53.5625 26.078125 56.59375 19.921875 
L 66.609375 0 
L 56 0 
L 46.6875 18.703125 
Q 43.0625 26.03125 39.671875 28.421875 
Q 36.28125 30.8125 30.421875 30.8125 
L 19.671875 30.8125 
L 19.671875 0 
L 9.8125 0 
L 9.8125 72.90625 
L 32.078125 72.90625 
Q 44.578125 72.90625 50.734375 67.671875 
Q 56.890625 62.453125 56.890625 51.90625 
Q 56.890625 45.015625 53.6875 40.46875 
Q 50.484375 35.9375 44.390625 34.1875 
z
M 19.671875 64.796875 
L 19.671875 38.921875 
L 32.078125 38.921875 
Q 39.203125 38.921875 42.84375 42.21875 
Q 46.484375 45.515625 46.484375 51.90625 
Q 46.484375 58.296875 42.84375 61.546875 
Q 39.203125 64.796875 32.078125 64.796875 
z
" id="DejaVuSans-82"/>
      <path d="M 37.203125 26.21875 
Q 37.203125 19.234375 40.671875 15.25 
Q 44.140625 11.28125 50.203125 11.28125 
Q 56.203125 11.28125 59.640625 15.28125 
Q 63.09375 19.28125 63.09375 26.21875 
Q 63.09375 33.0625 59.578125 37.078125 
Q 56.0625 41.109375 50.09375 41.109375 
Q 44.1875 41.109375 40.6875 37.109375 
Q 37.203125 33.109375 37.203125 26.21875 
z
M 63.8125 11.625 
Q 60.890625 7.859375 57.109375 6.078125 
Q 53.328125 4.296875 48.296875 4.296875 
Q 39.890625 4.296875 34.640625 10.375 
Q 29.390625 16.453125 29.390625 26.21875 
Q 29.390625 35.984375 34.65625 42.078125 
Q 39.9375 48.1875 48.296875 48.1875 
Q 53.328125 48.1875 57.125 46.359375 
Q 60.9375 44.53125 63.8125 40.828125 
L 63.8125 47.21875 
L 70.796875 47.21875 
L 70.796875 11.28125 
Q 77.9375 12.359375 81.953125 17.796875 
Q 85.984375 23.25 85.984375 31.890625 
Q 85.984375 37.109375 84.4375 41.703125 
Q 82.90625 46.296875 79.78125 50.203125 
Q 74.703125 56.59375 67.40625 59.984375 
Q 60.109375 63.375 51.515625 63.375 
Q 45.515625 63.375 39.984375 61.78125 
Q 34.46875 60.203125 29.78125 57.078125 
Q 22.125 52.09375 17.796875 44.015625 
Q 13.484375 35.9375 13.484375 26.515625 
Q 13.484375 18.75 16.28125 11.953125 
Q 19.09375 5.171875 24.421875 0 
Q 29.546875 -5.078125 36.28125 -7.734375 
Q 43.015625 -10.40625 50.6875 -10.40625 
Q 56.984375 -10.40625 63.0625 -8.28125 
Q 69.140625 -6.15625 74.21875 -2.203125 
L 78.609375 -7.625 
Q 72.515625 -12.359375 65.3125 -14.875 
Q 58.109375 -17.390625 50.6875 -17.390625 
Q 41.65625 -17.390625 33.640625 -14.1875 
Q 25.640625 -10.984375 19.390625 -4.890625 
Q 13.140625 1.21875 9.859375 9.25 
Q 6.59375 17.28125 6.59375 26.515625 
Q 6.59375 35.40625 9.90625 43.453125 
Q 13.234375 51.515625 19.390625 57.625 
Q 25.6875 63.8125 33.9375 67.109375 
Q 42.1875 70.40625 51.421875 70.40625 
Q 61.765625 70.40625 70.625 66.15625 
Q 79.5 61.921875 85.5 54.109375 
Q 89.15625 49.3125 91.078125 43.703125 
Q 93.015625 38.09375 93.015625 32.078125 
Q 93.015625 19.234375 85.25 11.8125 
Q 77.484375 4.390625 63.8125 4.109375 
z
" id="DejaVuSans-64"/>
     </defs>
     <g transform="translate(349.978125 549.554687)scale(0.1 -0.1)">
      <use xlink:href="#DejaVuSans-65"/>
      <use x="66.658203" xlink:href="#DejaVuSans-99"/>
      <use x="121.638672" xlink:href="#DejaVuSans-99"/>
      <use x="176.619141" xlink:href="#DejaVuSans-117"/>
      <use x="239.998047" xlink:href="#DejaVuSans-114"/>
      <use x="281.111328" xlink:href="#DejaVuSans-97"/>
      <use x="342.390625" xlink:href="#DejaVuSans-99"/>
      <use x="397.371094" xlink:href="#DejaVuSans-121"/>
      <use x="454.800781" xlink:href="#DejaVuSans-45"/>
      <use x="490.884766" xlink:href="#DejaVuSans-82"/>
      <use x="560.367188" xlink:href="#DejaVuSans-64"/>
      <use x="660.367188" xlink:href="#DejaVuSans-49"/>
     </g>
    </g>
   </g>
   <g id="matplotlib.axis_2">
    <g id="ytick_1">
     <g id="line2d_13">
      <path clip-path="url(#p1ce248137a)" d="M 51.378125 465.441081 
L 720.978125 465.441081 
" style="fill:none;stroke:#a6a6a6;stroke-linecap:square;stroke-width:0.8;"/>
     </g>
     <g id="line2d_14">
      <defs>
       <path d="M 0 0 
L -3.5 0 
" id="m0426f91f1c" style="stroke:#000000;stroke-width:0.8;"/>
      </defs>
      <g>
       <use style="stroke:#000000;stroke-width:0.8;" x="51.378125" xlink:href="#m0426f91f1c" y="465.441081"/>
      </g>
     </g>
     <g id="text_8">
      <!-- $\mathdefault{10^{-5}}$ -->
      <defs>
       <path d="M 10.59375 35.5 
L 73.1875 35.5 
L 73.1875 27.203125 
L 10.59375 27.203125 
z
" id="DejaVuSans-8722"/>
       <path d="M 10.796875 72.90625 
L 49.515625 72.90625 
L 49.515625 64.59375 
L 19.828125 64.59375 
L 19.828125 46.734375 
Q 21.96875 47.46875 24.109375 47.828125 
Q 26.265625 48.1875 28.421875 48.1875 
Q 40.625 48.1875 47.75 41.5 
Q 54.890625 34.8125 54.890625 23.390625 
Q 54.890625 11.625 47.5625 5.09375 
Q 40.234375 -1.421875 26.90625 -1.421875 
Q 22.3125 -1.421875 17.546875 -0.640625 
Q 12.796875 0.140625 7.71875 1.703125 
L 7.71875 11.625 
Q 12.109375 9.234375 16.796875 8.0625 
Q 21.484375 6.890625 26.703125 6.890625 
Q 35.15625 6.890625 40.078125 11.328125 
Q 45.015625 15.765625 45.015625 23.390625 
Q 45.015625 31 40.078125 35.4375 
Q 35.15625 39.890625 26.703125 39.890625 
Q 22.75 39.890625 18.8125 39.015625 
Q 14.890625 38.140625 10.796875 36.28125 
z
" id="DejaVuSans-53"/>
      </defs>
      <g transform="translate(20.878125 469.2403)scale(0.1 -0.1)">
       <use transform="translate(0 0.684375)" xlink:href="#DejaVuSans-49"/>
       <use transform="translate(63.623047 0.684375)" xlink:href="#DejaVuSans-48"/>
       <use transform="translate(128.203125 38.965625)scale(0.7)" xlink:href="#DejaVuSans-8722"/>
       <use transform="translate(186.855469 38.965625)scale(0.7)" xlink:href="#DejaVuSans-53"/>
      </g>
     </g>
    </g>
    <g id="ytick_2">
     <g id="line2d_15">
      <path clip-path="url(#p1ce248137a)" d="M 51.378125 378.353596 
L 720.978125 378.353596 
" style="fill:none;stroke:#a6a6a6;stroke-linecap:square;stroke-width:0.8;"/>
     </g>
     <g id="line2d_16">
      <g>
       <use style="stroke:#000000;stroke-width:0.8;" x="51.378125" xlink:href="#m0426f91f1c" y="378.353596"/>
      </g>
     </g>
     <g id="text_9">
      <!-- $\mathdefault{10^{-4}}$ -->
      <g transform="translate(20.878125 382.152815)scale(0.1 -0.1)">
       <use transform="translate(0 0.684375)" xlink:href="#DejaVuSans-49"/>
       <use transform="translate(63.623047 0.684375)" xlink:href="#DejaVuSans-48"/>
       <use transform="translate(128.203125 38.965625)scale(0.7)" xlink:href="#DejaVuSans-8722"/>
       <use transform="translate(186.855469 38.965625)scale(0.7)" xlink:href="#DejaVuSans-52"/>
      </g>
     </g>
    </g>
    <g id="ytick_3">
     <g id="line2d_17">
      <path clip-path="url(#p1ce248137a)" d="M 51.378125 291.26611 
L 720.978125 291.26611 
" style="fill:none;stroke:#a6a6a6;stroke-linecap:square;stroke-width:0.8;"/>
     </g>
     <g id="line2d_18">
      <g>
       <use style="stroke:#000000;stroke-width:0.8;" x="51.378125" xlink:href="#m0426f91f1c" y="291.26611"/>
      </g>
     </g>
     <g id="text_10">
      <!-- $\mathdefault{10^{-3}}$ -->
      <defs>
       <path d="M 40.578125 39.3125 
Q 47.65625 37.796875 51.625 33 
Q 55.609375 28.21875 55.609375 21.1875 
Q 55.609375 10.40625 48.1875 4.484375 
Q 40.765625 -1.421875 27.09375 -1.421875 
Q 22.515625 -1.421875 17.65625 -0.515625 
Q 12.796875 0.390625 7.625 2.203125 
L 7.625 11.71875 
Q 11.71875 9.328125 16.59375 8.109375 
Q 21.484375 6.890625 26.8125 6.890625 
Q 36.078125 6.890625 40.9375 10.546875 
Q 45.796875 14.203125 45.796875 21.1875 
Q 45.796875 27.640625 41.28125 31.265625 
Q 36.765625 34.90625 28.71875 34.90625 
L 20.21875 34.90625 
L 20.21875 43.015625 
L 29.109375 43.015625 
Q 36.375 43.015625 40.234375 45.921875 
Q 44.09375 48.828125 44.09375 54.296875 
Q 44.09375 59.90625 40.109375 62.90625 
Q 36.140625 65.921875 28.71875 65.921875 
Q 24.65625 65.921875 20.015625 65.03125 
Q 15.375 64.15625 9.8125 62.3125 
L 9.8125 71.09375 
Q 15.4375 72.65625 20.34375 73.4375 
Q 25.25 74.21875 29.59375 74.21875 
Q 40.828125 74.21875 47.359375 69.109375 
Q 53.90625 64.015625 53.90625 55.328125 
Q 53.90625 49.265625 50.4375 45.09375 
Q 46.96875 40.921875 40.578125 39.3125 
z
" id="DejaVuSans-51"/>
      </defs>
      <g transform="translate(20.878125 295.065329)scale(0.1 -0.1)">
       <use transform="translate(0 0.765625)" xlink:href="#DejaVuSans-49"/>
       <use transform="translate(63.623047 0.765625)" xlink:href="#DejaVuSans-48"/>
       <use transform="translate(128.203125 39.046875)scale(0.7)" xlink:href="#DejaVuSans-8722"/>
       <use transform="translate(186.855469 39.046875)scale(0.7)" xlink:href="#DejaVuSans-51"/>
      </g>
     </g>
    </g>
    <g id="ytick_4">
     <g id="line2d_19">
      <path clip-path="url(#p1ce248137a)" d="M 51.378125 204.178625 
L 720.978125 204.178625 
" style="fill:none;stroke:#a6a6a6;stroke-linecap:square;stroke-width:0.8;"/>
     </g>
     <g id="line2d_20">
      <g>
       <use style="stroke:#000000;stroke-width:0.8;" x="51.378125" xlink:href="#m0426f91f1c" y="204.178625"/>
      </g>
     </g>
     <g id="text_11">
      <!-- $\mathdefault{10^{-2}}$ -->
      <g transform="translate(20.878125 207.977844)scale(0.1 -0.1)">
       <use transform="translate(0 0.765625)" xlink:href="#DejaVuSans-49"/>
       <use transform="translate(63.623047 0.765625)" xlink:href="#DejaVuSans-48"/>
       <use transform="translate(128.203125 39.046875)scale(0.7)" xlink:href="#DejaVuSans-8722"/>
       <use transform="translate(186.855469 39.046875)scale(0.7)" xlink:href="#DejaVuSans-50"/>
      </g>
     </g>
    </g>
    <g id="ytick_5">
     <g id="line2d_21">
      <path clip-path="url(#p1ce248137a)" d="M 51.378125 117.09114 
L 720.978125 117.09114 
" style="fill:none;stroke:#a6a6a6;stroke-linecap:square;stroke-width:0.8;"/>
     </g>
     <g id="line2d_22">
      <g>
       <use style="stroke:#000000;stroke-width:0.8;" x="51.378125" xlink:href="#m0426f91f1c" y="117.09114"/>
      </g>
     </g>
     <g id="text_12">
      <!-- $\mathdefault{10^{-1}}$ -->
      <g transform="translate(20.878125 120.890358)scale(0.1 -0.1)">
       <use transform="translate(0 0.684375)" xlink:href="#DejaVuSans-49"/>
       <use transform="translate(63.623047 0.684375)" xlink:href="#DejaVuSans-48"/>
       <use transform="translate(128.203125 38.965625)scale(0.7)" xlink:href="#DejaVuSans-8722"/>
       <use transform="translate(186.855469 38.965625)scale(0.7)" xlink:href="#DejaVuSans-49"/>
      </g>
     </g>
    </g>
    <g id="ytick_6">
     <g id="line2d_23">
      <path clip-path="url(#p1ce248137a)" d="M 51.378125 30.003654 
L 720.978125 30.003654 
" style="fill:none;stroke:#a6a6a6;stroke-linecap:square;stroke-width:0.8;"/>
     </g>
     <g id="line2d_24">
      <g>
       <use style="stroke:#000000;stroke-width:0.8;" x="51.378125" xlink:href="#m0426f91f1c" y="30.003654"/>
      </g>
     </g>
     <g id="text_13">
      <!-- $\mathdefault{10^{0}}$ -->
      <g transform="translate(26.778125 33.802873)scale(0.1 -0.1)">
       <use transform="translate(0 0.765625)" xlink:href="#DejaVuSans-49"/>
       <use transform="translate(63.623047 0.765625)" xlink:href="#DejaVuSans-48"/>
       <use transform="translate(128.203125 39.046875)scale(0.7)" xlink:href="#DejaVuSans-48"/>
      </g>
     </g>
    </g>
    <g id="ytick_7">
     <g id="line2d_25">
      <defs>
       <path d="M 0 0 
L -2 0 
" id="m636d50a25c" style="stroke:#000000;stroke-width:0.6;"/>
      </defs>
      <g>
       <use style="stroke:#000000;stroke-width:0.6;" x="51.378125" xlink:href="#m636d50a25c" y="510.977276"/>
      </g>
     </g>
    </g>
    <g id="ytick_8">
     <g id="line2d_26">
      <g>
       <use style="stroke:#000000;stroke-width:0.6;" x="51.378125" xlink:href="#m636d50a25c" y="500.096676"/>
      </g>
     </g>
    </g>
    <g id="ytick_9">
     <g id="line2d_27">
      <g>
       <use style="stroke:#000000;stroke-width:0.6;" x="51.378125" xlink:href="#m636d50a25c" y="491.657027"/>
      </g>
     </g>
    </g>
    <g id="ytick_10">
     <g id="line2d_28">
      <g>
       <use style="stroke:#000000;stroke-width:0.6;" x="51.378125" xlink:href="#m636d50a25c" y="484.761331"/>
      </g>
     </g>
    </g>
    <g id="ytick_11">
     <g id="line2d_29">
      <g>
       <use style="stroke:#000000;stroke-width:0.6;" x="51.378125" xlink:href="#m636d50a25c" y="478.931104"/>
      </g>
     </g>
    </g>
    <g id="ytick_12">
     <g id="line2d_30">
      <g>
       <use style="stroke:#000000;stroke-width:0.6;" x="51.378125" xlink:href="#m636d50a25c" y="473.880731"/>
      </g>
     </g>
    </g>
    <g id="ytick_13">
     <g id="line2d_31">
      <g>
       <use style="stroke:#000000;stroke-width:0.6;" x="51.378125" xlink:href="#m636d50a25c" y="469.425986"/>
      </g>
     </g>
    </g>
    <g id="ytick_14">
     <g id="line2d_32">
      <g>
       <use style="stroke:#000000;stroke-width:0.6;" x="51.378125" xlink:href="#m636d50a25c" y="439.225136"/>
      </g>
     </g>
    </g>
    <g id="ytick_15">
     <g id="line2d_33">
      <g>
       <use style="stroke:#000000;stroke-width:0.6;" x="51.378125" xlink:href="#m636d50a25c" y="423.889791"/>
      </g>
     </g>
    </g>
    <g id="ytick_16">
     <g id="line2d_34">
      <g>
       <use style="stroke:#000000;stroke-width:0.6;" x="51.378125" xlink:href="#m636d50a25c" y="413.009191"/>
      </g>
     </g>
    </g>
    <g id="ytick_17">
     <g id="line2d_35">
      <g>
       <use style="stroke:#000000;stroke-width:0.6;" x="51.378125" xlink:href="#m636d50a25c" y="404.569541"/>
      </g>
     </g>
    </g>
    <g id="ytick_18">
     <g id="line2d_36">
      <g>
       <use style="stroke:#000000;stroke-width:0.6;" x="51.378125" xlink:href="#m636d50a25c" y="397.673846"/>
      </g>
     </g>
    </g>
    <g id="ytick_19">
     <g id="line2d_37">
      <g>
       <use style="stroke:#000000;stroke-width:0.6;" x="51.378125" xlink:href="#m636d50a25c" y="391.843618"/>
      </g>
     </g>
    </g>
    <g id="ytick_20">
     <g id="line2d_38">
      <g>
       <use style="stroke:#000000;stroke-width:0.6;" x="51.378125" xlink:href="#m636d50a25c" y="386.793245"/>
      </g>
     </g>
    </g>
    <g id="ytick_21">
     <g id="line2d_39">
      <g>
       <use style="stroke:#000000;stroke-width:0.6;" x="51.378125" xlink:href="#m636d50a25c" y="382.338501"/>
      </g>
     </g>
    </g>
    <g id="ytick_22">
     <g id="line2d_40">
      <g>
       <use style="stroke:#000000;stroke-width:0.6;" x="51.378125" xlink:href="#m636d50a25c" y="352.137651"/>
      </g>
     </g>
    </g>
    <g id="ytick_23">
     <g id="line2d_41">
      <g>
       <use style="stroke:#000000;stroke-width:0.6;" x="51.378125" xlink:href="#m636d50a25c" y="336.802306"/>
      </g>
     </g>
    </g>
    <g id="ytick_24">
     <g id="line2d_42">
      <g>
       <use style="stroke:#000000;stroke-width:0.6;" x="51.378125" xlink:href="#m636d50a25c" y="325.921705"/>
      </g>
     </g>
    </g>
    <g id="ytick_25">
     <g id="line2d_43">
      <g>
       <use style="stroke:#000000;stroke-width:0.6;" x="51.378125" xlink:href="#m636d50a25c" y="317.482056"/>
      </g>
     </g>
    </g>
    <g id="ytick_26">
     <g id="line2d_44">
      <g>
       <use style="stroke:#000000;stroke-width:0.6;" x="51.378125" xlink:href="#m636d50a25c" y="310.58636"/>
      </g>
     </g>
    </g>
    <g id="ytick_27">
     <g id="line2d_45">
      <g>
       <use style="stroke:#000000;stroke-width:0.6;" x="51.378125" xlink:href="#m636d50a25c" y="304.756133"/>
      </g>
     </g>
    </g>
    <g id="ytick_28">
     <g id="line2d_46">
      <g>
       <use style="stroke:#000000;stroke-width:0.6;" x="51.378125" xlink:href="#m636d50a25c" y="299.70576"/>
      </g>
     </g>
    </g>
    <g id="ytick_29">
     <g id="line2d_47">
      <g>
       <use style="stroke:#000000;stroke-width:0.6;" x="51.378125" xlink:href="#m636d50a25c" y="295.251015"/>
      </g>
     </g>
    </g>
    <g id="ytick_30">
     <g id="line2d_48">
      <g>
       <use style="stroke:#000000;stroke-width:0.6;" x="51.378125" xlink:href="#m636d50a25c" y="265.050165"/>
      </g>
     </g>
    </g>
    <g id="ytick_31">
     <g id="line2d_49">
      <g>
       <use style="stroke:#000000;stroke-width:0.6;" x="51.378125" xlink:href="#m636d50a25c" y="249.71482"/>
      </g>
     </g>
    </g>
    <g id="ytick_32">
     <g id="line2d_50">
      <g>
       <use style="stroke:#000000;stroke-width:0.6;" x="51.378125" xlink:href="#m636d50a25c" y="238.83422"/>
      </g>
     </g>
    </g>
    <g id="ytick_33">
     <g id="line2d_51">
      <g>
       <use style="stroke:#000000;stroke-width:0.6;" x="51.378125" xlink:href="#m636d50a25c" y="230.39457"/>
      </g>
     </g>
    </g>
    <g id="ytick_34">
     <g id="line2d_52">
      <g>
       <use style="stroke:#000000;stroke-width:0.6;" x="51.378125" xlink:href="#m636d50a25c" y="223.498875"/>
      </g>
     </g>
    </g>
    <g id="ytick_35">
     <g id="line2d_53">
      <g>
       <use style="stroke:#000000;stroke-width:0.6;" x="51.378125" xlink:href="#m636d50a25c" y="217.668647"/>
      </g>
     </g>
    </g>
    <g id="ytick_36">
     <g id="line2d_54">
      <g>
       <use style="stroke:#000000;stroke-width:0.6;" x="51.378125" xlink:href="#m636d50a25c" y="212.618274"/>
      </g>
     </g>
    </g>
    <g id="ytick_37">
     <g id="line2d_55">
      <g>
       <use style="stroke:#000000;stroke-width:0.6;" x="51.378125" xlink:href="#m636d50a25c" y="208.16353"/>
      </g>
     </g>
    </g>
    <g id="ytick_38">
     <g id="line2d_56">
      <g>
       <use style="stroke:#000000;stroke-width:0.6;" x="51.378125" xlink:href="#m636d50a25c" y="177.96268"/>
      </g>
     </g>
    </g>
    <g id="ytick_39">
     <g id="line2d_57">
      <g>
       <use style="stroke:#000000;stroke-width:0.6;" x="51.378125" xlink:href="#m636d50a25c" y="162.627335"/>
      </g>
     </g>
    </g>
    <g id="ytick_40">
     <g id="line2d_58">
      <g>
       <use style="stroke:#000000;stroke-width:0.6;" x="51.378125" xlink:href="#m636d50a25c" y="151.746734"/>
      </g>
     </g>
    </g>
    <g id="ytick_41">
     <g id="line2d_59">
      <g>
       <use style="stroke:#000000;stroke-width:0.6;" x="51.378125" xlink:href="#m636d50a25c" y="143.307085"/>
      </g>
     </g>
    </g>
    <g id="ytick_42">
     <g id="line2d_60">
      <g>
       <use style="stroke:#000000;stroke-width:0.6;" x="51.378125" xlink:href="#m636d50a25c" y="136.411389"/>
      </g>
     </g>
    </g>
    <g id="ytick_43">
     <g id="line2d_61">
      <g>
       <use style="stroke:#000000;stroke-width:0.6;" x="51.378125" xlink:href="#m636d50a25c" y="130.581162"/>
      </g>
     </g>
    </g>
    <g id="ytick_44">
     <g id="line2d_62">
      <g>
       <use style="stroke:#000000;stroke-width:0.6;" x="51.378125" xlink:href="#m636d50a25c" y="125.530789"/>
      </g>
     </g>
    </g>
    <g id="ytick_45">
     <g id="line2d_63">
      <g>
       <use style="stroke:#000000;stroke-width:0.6;" x="51.378125" xlink:href="#m636d50a25c" y="121.076044"/>
      </g>
     </g>
    </g>
    <g id="ytick_46">
     <g id="line2d_64">
      <g>
       <use style="stroke:#000000;stroke-width:0.6;" x="51.378125" xlink:href="#m636d50a25c" y="90.875194"/>
      </g>
     </g>
    </g>
    <g id="ytick_47">
     <g id="line2d_65">
      <g>
       <use style="stroke:#000000;stroke-width:0.6;" x="51.378125" xlink:href="#m636d50a25c" y="75.539849"/>
      </g>
     </g>
    </g>
    <g id="ytick_48">
     <g id="line2d_66">
      <g>
       <use style="stroke:#000000;stroke-width:0.6;" x="51.378125" xlink:href="#m636d50a25c" y="64.659249"/>
      </g>
     </g>
    </g>
    <g id="ytick_49">
     <g id="line2d_67">
      <g>
       <use style="stroke:#000000;stroke-width:0.6;" x="51.378125" xlink:href="#m636d50a25c" y="56.219599"/>
      </g>
     </g>
    </g>
    <g id="ytick_50">
     <g id="line2d_68">
      <g>
       <use style="stroke:#000000;stroke-width:0.6;" x="51.378125" xlink:href="#m636d50a25c" y="49.323904"/>
      </g>
     </g>
    </g>
    <g id="ytick_51">
     <g id="line2d_69">
      <g>
       <use style="stroke:#000000;stroke-width:0.6;" x="51.378125" xlink:href="#m636d50a25c" y="43.493676"/>
      </g>
     </g>
    </g>
    <g id="ytick_52">
     <g id="line2d_70">
      <g>
       <use style="stroke:#000000;stroke-width:0.6;" x="51.378125" xlink:href="#m636d50a25c" y="38.443303"/>
      </g>
     </g>
    </g>
    <g id="ytick_53">
     <g id="line2d_71">
      <g>
       <use style="stroke:#000000;stroke-width:0.6;" x="51.378125" xlink:href="#m636d50a25c" y="33.988559"/>
      </g>
     </g>
    </g>
    <g id="text_14">
     <!-- Best query search time (s) -->
     <defs>
      <path d="M 19.671875 34.8125 
L 19.671875 8.109375 
L 35.5 8.109375 
Q 43.453125 8.109375 47.28125 11.40625 
Q 51.125 14.703125 51.125 21.484375 
Q 51.125 28.328125 47.28125 31.5625 
Q 43.453125 34.8125 35.5 34.8125 
z
M 19.671875 64.796875 
L 19.671875 42.828125 
L 34.28125 42.828125 
Q 41.5 42.828125 45.03125 45.53125 
Q 48.578125 48.25 48.578125 53.8125 
Q 48.578125 59.328125 45.03125 62.0625 
Q 41.5 64.796875 34.28125 64.796875 
z
M 9.8125 72.90625 
L 35.015625 72.90625 
Q 46.296875 72.90625 52.390625 68.21875 
Q 58.5 63.53125 58.5 54.890625 
Q 58.5 48.1875 55.375 44.234375 
Q 52.25 40.28125 46.1875 39.3125 
Q 53.46875 37.75 57.5 32.78125 
Q 61.53125 27.828125 61.53125 20.40625 
Q 61.53125 10.640625 54.890625 5.3125 
Q 48.25 0 35.984375 0 
L 9.8125 0 
z
" id="DejaVuSans-66"/>
      <path d="M 56.203125 29.59375 
L 56.203125 25.203125 
L 14.890625 25.203125 
Q 15.484375 15.921875 20.484375 11.0625 
Q 25.484375 6.203125 34.421875 6.203125 
Q 39.59375 6.203125 44.453125 7.46875 
Q 49.3125 8.734375 54.109375 11.28125 
L 54.109375 2.78125 
Q 49.265625 0.734375 44.1875 -0.34375 
Q 39.109375 -1.421875 33.890625 -1.421875 
Q 20.796875 -1.421875 13.15625 6.1875 
Q 5.515625 13.8125 5.515625 26.8125 
Q 5.515625 40.234375 12.765625 48.109375 
Q 20.015625 56 32.328125 56 
Q 43.359375 56 49.78125 48.890625 
Q 56.203125 41.796875 56.203125 29.59375 
z
M 47.21875 32.234375 
Q 47.125 39.59375 43.09375 43.984375 
Q 39.0625 48.390625 32.421875 48.390625 
Q 24.90625 48.390625 20.390625 44.140625 
Q 15.875 39.890625 15.1875 32.171875 
z
" id="DejaVuSans-101"/>
      <path d="M 44.28125 53.078125 
L 44.28125 44.578125 
Q 40.484375 46.53125 36.375 47.5 
Q 32.28125 48.484375 27.875 48.484375 
Q 21.1875 48.484375 17.84375 46.4375 
Q 14.5 44.390625 14.5 40.28125 
Q 14.5 37.15625 16.890625 35.375 
Q 19.28125 33.59375 26.515625 31.984375 
L 29.59375 31.296875 
Q 39.15625 29.25 43.1875 25.515625 
Q 47.21875 21.78125 47.21875 15.09375 
Q 47.21875 7.46875 41.1875 3.015625 
Q 35.15625 -1.421875 24.609375 -1.421875 
Q 20.21875 -1.421875 15.453125 -0.5625 
Q 10.6875 0.296875 5.421875 2 
L 5.421875 11.28125 
Q 10.40625 8.6875 15.234375 7.390625 
Q 20.0625 6.109375 24.8125 6.109375 
Q 31.15625 6.109375 34.5625 8.28125 
Q 37.984375 10.453125 37.984375 14.40625 
Q 37.984375 18.0625 35.515625 20.015625 
Q 33.0625 21.96875 24.703125 23.78125 
L 21.578125 24.515625 
Q 13.234375 26.265625 9.515625 29.90625 
Q 5.8125 33.546875 5.8125 39.890625 
Q 5.8125 47.609375 11.28125 51.796875 
Q 16.75 56 26.8125 56 
Q 31.78125 56 36.171875 55.265625 
Q 40.578125 54.546875 44.28125 53.078125 
z
" id="DejaVuSans-115"/>
      <path d="M 18.3125 70.21875 
L 18.3125 54.6875 
L 36.8125 54.6875 
L 36.8125 47.703125 
L 18.3125 47.703125 
L 18.3125 18.015625 
Q 18.3125 11.328125 20.140625 9.421875 
Q 21.96875 7.515625 27.59375 7.515625 
L 36.8125 7.515625 
L 36.8125 0 
L 27.59375 0 
Q 17.1875 0 13.234375 3.875 
Q 9.28125 7.765625 9.28125 18.015625 
L 9.28125 47.703125 
L 2.6875 47.703125 
L 2.6875 54.6875 
L 9.28125 54.6875 
L 9.28125 70.21875 
z
" id="DejaVuSans-116"/>
      <path id="DejaVuSans-32"/>
      <path d="M 14.796875 27.296875 
Q 14.796875 17.390625 18.875 11.75 
Q 22.953125 6.109375 30.078125 6.109375 
Q 37.203125 6.109375 41.296875 11.75 
Q 45.40625 17.390625 45.40625 27.296875 
Q 45.40625 37.203125 41.296875 42.84375 
Q 37.203125 48.484375 30.078125 48.484375 
Q 22.953125 48.484375 18.875 42.84375 
Q 14.796875 37.203125 14.796875 27.296875 
z
M 45.40625 8.203125 
Q 42.578125 3.328125 38.25 0.953125 
Q 33.9375 -1.421875 27.875 -1.421875 
Q 17.96875 -1.421875 11.734375 6.484375 
Q 5.515625 14.40625 5.515625 27.296875 
Q 5.515625 40.1875 11.734375 48.09375 
Q 17.96875 56 27.875 56 
Q 33.9375 56 38.25 53.625 
Q 42.578125 51.265625 45.40625 46.390625 
L 45.40625 54.6875 
L 54.390625 54.6875 
L 54.390625 -20.796875 
L 45.40625 -20.796875 
z
" id="DejaVuSans-113"/>
      <path d="M 54.890625 33.015625 
L 54.890625 0 
L 45.90625 0 
L 45.90625 32.71875 
Q 45.90625 40.484375 42.875 44.328125 
Q 39.84375 48.1875 33.796875 48.1875 
Q 26.515625 48.1875 22.3125 43.546875 
Q 18.109375 38.921875 18.109375 30.90625 
L 18.109375 0 
L 9.078125 0 
L 9.078125 75.984375 
L 18.109375 75.984375 
L 18.109375 46.1875 
Q 21.34375 51.125 25.703125 53.5625 
Q 30.078125 56 35.796875 56 
Q 45.21875 56 50.046875 50.171875 
Q 54.890625 44.34375 54.890625 33.015625 
z
" id="DejaVuSans-104"/>
      <path d="M 9.421875 54.6875 
L 18.40625 54.6875 
L 18.40625 0 
L 9.421875 0 
z
M 9.421875 75.984375 
L 18.40625 75.984375 
L 18.40625 64.59375 
L 9.421875 64.59375 
z
" id="DejaVuSans-105"/>
      <path d="M 52 44.1875 
Q 55.375 50.25 60.0625 53.125 
Q 64.75 56 71.09375 56 
Q 79.640625 56 84.28125 50.015625 
Q 88.921875 44.046875 88.921875 33.015625 
L 88.921875 0 
L 79.890625 0 
L 79.890625 32.71875 
Q 79.890625 40.578125 77.09375 44.375 
Q 74.3125 48.1875 68.609375 48.1875 
Q 61.625 48.1875 57.5625 43.546875 
Q 53.515625 38.921875 53.515625 30.90625 
L 53.515625 0 
L 44.484375 0 
L 44.484375 32.71875 
Q 44.484375 40.625 41.703125 44.40625 
Q 38.921875 48.1875 33.109375 48.1875 
Q 26.21875 48.1875 22.15625 43.53125 
Q 18.109375 38.875 18.109375 30.90625 
L 18.109375 0 
L 9.078125 0 
L 9.078125 54.6875 
L 18.109375 54.6875 
L 18.109375 46.1875 
Q 21.1875 51.21875 25.484375 53.609375 
Q 29.78125 56 35.6875 56 
Q 41.65625 56 45.828125 52.96875 
Q 50 49.953125 52 44.1875 
z
" id="DejaVuSans-109"/>
      <path d="M 31 75.875 
Q 24.46875 64.65625 21.28125 53.65625 
Q 18.109375 42.671875 18.109375 31.390625 
Q 18.109375 20.125 21.3125 9.0625 
Q 24.515625 -2 31 -13.1875 
L 23.1875 -13.1875 
Q 15.875 -1.703125 12.234375 9.375 
Q 8.59375 20.453125 8.59375 31.390625 
Q 8.59375 42.28125 12.203125 53.3125 
Q 15.828125 64.359375 23.1875 75.875 
z
" id="DejaVuSans-40"/>
      <path d="M 8.015625 75.875 
L 15.828125 75.875 
Q 23.140625 64.359375 26.78125 53.3125 
Q 30.421875 42.28125 30.421875 31.390625 
Q 30.421875 20.453125 26.78125 9.375 
Q 23.140625 -1.703125 15.828125 -13.1875 
L 8.015625 -13.1875 
Q 14.5 -2 17.703125 9.0625 
Q 20.90625 20.125 20.90625 31.390625 
Q 20.90625 42.671875 17.703125 53.65625 
Q 14.5 64.65625 8.015625 75.875 
z
" id="DejaVuSans-41"/>
     </defs>
     <g transform="translate(14.798438 338.069219)rotate(-90)scale(0.1 -0.1)">
      <use xlink:href="#DejaVuSans-66"/>
      <use x="68.603516" xlink:href="#DejaVuSans-101"/>
      <use x="130.126953" xlink:href="#DejaVuSans-115"/>
      <use x="182.226562" xlink:href="#DejaVuSans-116"/>
      <use x="221.435547" xlink:href="#DejaVuSans-32"/>
      <use x="253.222656" xlink:href="#DejaVuSans-113"/>
      <use x="316.699219" xlink:href="#DejaVuSans-117"/>
      <use x="380.078125" xlink:href="#DejaVuSans-101"/>
      <use x="441.601562" xlink:href="#DejaVuSans-114"/>
      <use x="482.714844" xlink:href="#DejaVuSans-121"/>
      <use x="541.894531" xlink:href="#DejaVuSans-32"/>
      <use x="573.681641" xlink:href="#DejaVuSans-115"/>
      <use x="625.78125" xlink:href="#DejaVuSans-101"/>
      <use x="687.304688" xlink:href="#DejaVuSans-97"/>
      <use x="748.583984" xlink:href="#DejaVuSans-114"/>
      <use x="787.447266" xlink:href="#DejaVuSans-99"/>
      <use x="842.427734" xlink:href="#DejaVuSans-104"/>
      <use x="905.806641" xlink:href="#DejaVuSans-32"/>
      <use x="937.59375" xlink:href="#DejaVuSans-116"/>
      <use x="976.802734" xlink:href="#DejaVuSans-105"/>
      <use x="1004.585938" xlink:href="#DejaVuSans-109"/>
      <use x="1101.998047" xlink:href="#DejaVuSans-101"/>
      <use x="1163.521484" xlink:href="#DejaVuSans-32"/>
      <use x="1195.308594" xlink:href="#DejaVuSans-40"/>
      <use x="1234.322266" xlink:href="#DejaVuSans-115"/>
      <use x="1286.421875" xlink:href="#DejaVuSans-41"/>
     </g>
    </g>
   </g>
   <g id="line2d_72">
    <path clip-path="url(#p1ce248137a)" d="M 632.409809 322.440388 
L 640.982551 314.614333 
L 641.1077 313.93045 
L 649.054695 310.444752 
L 655.812769 303.968069 
L 659.692404 294.743214 
L 671.20616 291.549862 
L 673.8343 287.136104 
L 674.647772 280.900155 
L 679.21573 274.105058 
L 681.781295 270.182816 
L 683.658538 252.946184 
L 684.409435 251.093652 
L 685.222907 248.288374 
L 686.161528 224.370421 
L 687.225299 222.869424 
L 687.851047 220.967745 
L 688.226495 202.037214 
L 688.727093 200.730134 
L 689.415416 179.142882 
L 689.728289 179.112147 
L 689.978589 150.546599 
L 690.166313 150.525975 
L 690.228888 127.88934 
L 690.354037 127.6929 
" style="fill:none;stroke:#6666cc;stroke-dasharray:11.1,4.8;stroke-dashoffset:0;stroke-width:3;"/>
    <defs>
     <path d="M -3.5 3.5 
L 3.5 -3.5 
M -3.5 -3.5 
L 3.5 3.5 
" id="m9448be7c1f" style="stroke:#6666cc;stroke-width:3;"/>
    </defs>
    <g clip-path="url(#p1ce248137a)">
     <use style="fill:#6666cc;stroke:#6666cc;stroke-width:3;" x="632.409809" xlink:href="#m9448be7c1f" y="322.440388"/>
     <use style="fill:#6666cc;stroke:#6666cc;stroke-width:3;" x="640.982551" xlink:href="#m9448be7c1f" y="314.614333"/>
     <use style="fill:#6666cc;stroke:#6666cc;stroke-width:3;" x="641.1077" xlink:href="#m9448be7c1f" y="313.93045"/>
     <use style="fill:#6666cc;stroke:#6666cc;stroke-width:3;" x="649.054695" xlink:href="#m9448be7c1f" y="310.444752"/>
     <use style="fill:#6666cc;stroke:#6666cc;stroke-width:3;" x="655.812769" xlink:href="#m9448be7c1f" y="303.968069"/>
     <use style="fill:#6666cc;stroke:#6666cc;stroke-width:3;" x="659.692404" xlink:href="#m9448be7c1f" y="294.743214"/>
     <use style="fill:#6666cc;stroke:#6666cc;stroke-width:3;" x="671.20616" xlink:href="#m9448be7c1f" y="291.549862"/>
     <use style="fill:#6666cc;stroke:#6666cc;stroke-width:3;" x="673.8343" xlink:href="#m9448be7c1f" y="287.136104"/>
     <use style="fill:#6666cc;stroke:#6666cc;stroke-width:3;" x="674.647772" xlink:href="#m9448be7c1f" y="280.900155"/>
     <use style="fill:#6666cc;stroke:#6666cc;stroke-width:3;" x="679.21573" xlink:href="#m9448be7c1f" y="274.105058"/>
     <use style="fill:#6666cc;stroke:#6666cc;stroke-width:3;" x="681.781295" xlink:href="#m9448be7c1f" y="270.182816"/>
     <use style="fill:#6666cc;stroke:#6666cc;stroke-width:3;" x="683.658538" xlink:href="#m9448be7c1f" y="252.946184"/>
     <use style="fill:#6666cc;stroke:#6666cc;stroke-width:3;" x="684.409435" xlink:href="#m9448be7c1f" y="251.093652"/>
     <use style="fill:#6666cc;stroke:#6666cc;stroke-width:3;" x="685.222907" xlink:href="#m9448be7c1f" y="248.288374"/>
     <use style="fill:#6666cc;stroke:#6666cc;stroke-width:3;" x="686.161528" xlink:href="#m9448be7c1f" y="224.370421"/>
     <use style="fill:#6666cc;stroke:#6666cc;stroke-width:3;" x="687.225299" xlink:href="#m9448be7c1f" y="222.869424"/>
     <use style="fill:#6666cc;stroke:#6666cc;stroke-width:3;" x="687.851047" xlink:href="#m9448be7c1f" y="220.967745"/>
     <use style="fill:#6666cc;stroke:#6666cc;stroke-width:3;" x="688.226495" xlink:href="#m9448be7c1f" y="202.037214"/>
     <use style="fill:#6666cc;stroke:#6666cc;stroke-width:3;" x="688.727093" xlink:href="#m9448be7c1f" y="200.730134"/>
     <use style="fill:#6666cc;stroke:#6666cc;stroke-width:3;" x="689.415416" xlink:href="#m9448be7c1f" y="179.142882"/>
     <use style="fill:#6666cc;stroke:#6666cc;stroke-width:3;" x="689.728289" xlink:href="#m9448be7c1f" y="179.112147"/>
     <use style="fill:#6666cc;stroke:#6666cc;stroke-width:3;" x="689.978589" xlink:href="#m9448be7c1f" y="150.546599"/>
     <use style="fill:#6666cc;stroke:#6666cc;stroke-width:3;" x="690.166313" xlink:href="#m9448be7c1f" y="150.525975"/>
     <use style="fill:#6666cc;stroke:#6666cc;stroke-width:3;" x="690.228888" xlink:href="#m9448be7c1f" y="127.88934"/>
     <use style="fill:#6666cc;stroke:#6666cc;stroke-width:3;" x="690.354037" xlink:href="#m9448be7c1f" y="127.6929"/>
    </g>
   </g>
   <g id="line2d_73">
    <path clip-path="url(#p1ce248137a)" d="M 676.024417 239.11766 
L 681.781295 209.20259 
L 686.224103 183.746056 
L 687.350449 169.278311 
L 687.725897 151.146441 
L 688.476794 138.998051 
L 689.60314 127.854938 
L 689.853439 110.770565 
L 690.041163 105.035257 
L 690.228888 96.93684 
L 690.291462 85.933305 
L 690.416612 79.840371 
" style="fill:none;stroke:#e66666;stroke-dasharray:11.1,4.8;stroke-dashoffset:0;stroke-width:3;"/>
    <defs>
     <path d="M -3.5 0 
L 3.5 0 
M 0 3.5 
L 0 -3.5 
" id="m6029f9ec34" style="stroke:#e66666;stroke-width:3;"/>
    </defs>
    <g clip-path="url(#p1ce248137a)">
     <use style="fill:#e66666;stroke:#e66666;stroke-width:3;" x="676.024417" xlink:href="#m6029f9ec34" y="239.11766"/>
     <use style="fill:#e66666;stroke:#e66666;stroke-width:3;" x="681.781295" xlink:href="#m6029f9ec34" y="209.20259"/>
     <use style="fill:#e66666;stroke:#e66666;stroke-width:3;" x="686.224103" xlink:href="#m6029f9ec34" y="183.746056"/>
     <use style="fill:#e66666;stroke:#e66666;stroke-width:3;" x="687.350449" xlink:href="#m6029f9ec34" y="169.278311"/>
     <use style="fill:#e66666;stroke:#e66666;stroke-width:3;" x="687.725897" xlink:href="#m6029f9ec34" y="151.146441"/>
     <use style="fill:#e66666;stroke:#e66666;stroke-width:3;" x="688.476794" xlink:href="#m6029f9ec34" y="138.998051"/>
     <use style="fill:#e66666;stroke:#e66666;stroke-width:3;" x="689.60314" xlink:href="#m6029f9ec34" y="127.854938"/>
     <use style="fill:#e66666;stroke:#e66666;stroke-width:3;" x="689.853439" xlink:href="#m6029f9ec34" y="110.770565"/>
     <use style="fill:#e66666;stroke:#e66666;stroke-width:3;" x="690.041163" xlink:href="#m6029f9ec34" y="105.035257"/>
     <use style="fill:#e66666;stroke:#e66666;stroke-width:3;" x="690.228888" xlink:href="#m6029f9ec34" y="96.93684"/>
     <use style="fill:#e66666;stroke:#e66666;stroke-width:3;" x="690.291462" xlink:href="#m6029f9ec34" y="85.933305"/>
     <use style="fill:#e66666;stroke:#e66666;stroke-width:3;" x="690.416612" xlink:href="#m6029f9ec34" y="79.840371"/>
    </g>
   </g>
   <g id="line2d_74">
    <path clip-path="url(#p1ce248137a)" d="M 683.408239 44.998125 
" style="fill:none;stroke:#669966;stroke-dasharray:19.2,4.8,3,4.8;stroke-dashoffset:0;stroke-width:3;"/>
    <defs>
     <path d="M -3.5 0 
L 3.5 0 
M 0 3.5 
L 0 -3.5 
" id="m78b2a7f41d" style="stroke:#669966;stroke-width:3;"/>
    </defs>
    <g clip-path="url(#p1ce248137a)">
     <use style="fill:#669966;stroke:#669966;stroke-width:3;" x="683.408239" xlink:href="#m78b2a7f41d" y="44.998125"/>
    </g>
   </g>
   <g id="line2d_75">
    <path clip-path="url(#p1ce248137a)" d="M 666.951077 241.862485 
L 675.461244 221.696265 
L 683.345664 213.494504 
L 685.348056 211.253686 
L 687.538173 200.962342 
L 689.665715 161.43684 
L 690.354037 139.430975 
" style="fill:none;stroke:#b2b2b2;stroke-linecap:square;stroke-width:3;"/>
    <defs>
     <path d="M -3.5 -0 
L 3.5 3.5 
L 3.5 -3.5 
z
" id="m8ea4fdcef7" style="stroke:#b2b2b2;stroke-linejoin:miter;stroke-width:3;"/>
    </defs>
    <g clip-path="url(#p1ce248137a)">
     <use style="fill:#b2b2b2;stroke:#b2b2b2;stroke-linejoin:miter;stroke-width:3;" x="666.951077" xlink:href="#m8ea4fdcef7" y="241.862485"/>
     <use style="fill:#b2b2b2;stroke:#b2b2b2;stroke-linejoin:miter;stroke-width:3;" x="675.461244" xlink:href="#m8ea4fdcef7" y="221.696265"/>
     <use style="fill:#b2b2b2;stroke:#b2b2b2;stroke-linejoin:miter;stroke-width:3;" x="683.345664" xlink:href="#m8ea4fdcef7" y="213.494504"/>
     <use style="fill:#b2b2b2;stroke:#b2b2b2;stroke-linejoin:miter;stroke-width:3;" x="685.348056" xlink:href="#m8ea4fdcef7" y="211.253686"/>
     <use style="fill:#b2b2b2;stroke:#b2b2b2;stroke-linejoin:miter;stroke-width:3;" x="687.538173" xlink:href="#m8ea4fdcef7" y="200.962342"/>
     <use style="fill:#b2b2b2;stroke:#b2b2b2;stroke-linejoin:miter;stroke-width:3;" x="689.665715" xlink:href="#m8ea4fdcef7" y="161.43684"/>
     <use style="fill:#b2b2b2;stroke:#b2b2b2;stroke-linejoin:miter;stroke-width:3;" x="690.354037" xlink:href="#m8ea4fdcef7" y="139.430975"/>
    </g>
   </g>
   <g id="line2d_76">
    <path clip-path="url(#p1ce248137a)" d="M 125.679396 427.108684 
L 131.811722 414.358779 
L 218.102318 411.79082 
L 255.647174 399.85229 
L 302.828544 398.466921 
L 330.549163 387.062221 
L 361.023071 386.755754 
L 401.508941 375.369937 
L 461.705861 373.129001 
L 534.918331 363.092001 
L 572.838636 356.399747 
L 596.241597 350.097926 
L 627.028379 341.609143 
L 644.987336 335.801656 
L 654.686423 332.040197 
L 668.390296 324.919967 
L 672.958254 322.075357 
L 682.219318 312.483139 
" style="fill:none;stroke:#ffffb2;stroke-dasharray:3,4.95;stroke-dashoffset:0;stroke-width:3;"/>
    <defs>
     <path d="M 0 3.5 
C 0.928211 3.5 1.81853 3.131218 2.474874 2.474874 
C 3.131218 1.81853 3.5 0.928211 3.5 0 
C 3.5 -0.928211 3.131218 -1.81853 2.474874 -2.474874 
C 1.81853 -3.131218 0.928211 -3.5 0 -3.5 
C -0.928211 -3.5 -1.81853 -3.131218 -2.474874 -2.474874 
C -3.131218 -1.81853 -3.5 -0.928211 -3.5 0 
C -3.5 0.928211 -3.131218 1.81853 -2.474874 2.474874 
C -1.81853 3.131218 -0.928211 3.5 0 3.5 
z
" id="m618f2f0681" style="stroke:#ffffb2;stroke-width:3;"/>
    </defs>
    <g clip-path="url(#p1ce248137a)">
     <use style="fill:#ffffb2;stroke:#ffffb2;stroke-width:3;" x="125.679396" xlink:href="#m618f2f0681" y="427.108684"/>
     <use style="fill:#ffffb2;stroke:#ffffb2;stroke-width:3;" x="131.811722" xlink:href="#m618f2f0681" y="414.358779"/>
     <use style="fill:#ffffb2;stroke:#ffffb2;stroke-width:3;" x="218.102318" xlink:href="#m618f2f0681" y="411.79082"/>
     <use style="fill:#ffffb2;stroke:#ffffb2;stroke-width:3;" x="255.647174" xlink:href="#m618f2f0681" y="399.85229"/>
     <use style="fill:#ffffb2;stroke:#ffffb2;stroke-width:3;" x="302.828544" xlink:href="#m618f2f0681" y="398.466921"/>
     <use style="fill:#ffffb2;stroke:#ffffb2;stroke-width:3;" x="330.549163" xlink:href="#m618f2f0681" y="387.062221"/>
     <use style="fill:#ffffb2;stroke:#ffffb2;stroke-width:3;" x="361.023071" xlink:href="#m618f2f0681" y="386.755754"/>
     <use style="fill:#ffffb2;stroke:#ffffb2;stroke-width:3;" x="401.508941" xlink:href="#m618f2f0681" y="375.369937"/>
     <use style="fill:#ffffb2;stroke:#ffffb2;stroke-width:3;" x="461.705861" xlink:href="#m618f2f0681" y="373.129001"/>
     <use style="fill:#ffffb2;stroke:#ffffb2;stroke-width:3;" x="534.918331" xlink:href="#m618f2f0681" y="363.092001"/>
     <use style="fill:#ffffb2;stroke:#ffffb2;stroke-width:3;" x="572.838636" xlink:href="#m618f2f0681" y="356.399747"/>
     <use style="fill:#ffffb2;stroke:#ffffb2;stroke-width:3;" x="596.241597" xlink:href="#m618f2f0681" y="350.097926"/>
     <use style="fill:#ffffb2;stroke:#ffffb2;stroke-width:3;" x="627.028379" xlink:href="#m618f2f0681" y="341.609143"/>
     <use style="fill:#ffffb2;stroke:#ffffb2;stroke-width:3;" x="644.987336" xlink:href="#m618f2f0681" y="335.801656"/>
     <use style="fill:#ffffb2;stroke:#ffffb2;stroke-width:3;" x="654.686423" xlink:href="#m618f2f0681" y="332.040197"/>
     <use style="fill:#ffffb2;stroke:#ffffb2;stroke-width:3;" x="668.390296" xlink:href="#m618f2f0681" y="324.919967"/>
     <use style="fill:#ffffb2;stroke:#ffffb2;stroke-width:3;" x="672.958254" xlink:href="#m618f2f0681" y="322.075357"/>
     <use style="fill:#ffffb2;stroke:#ffffb2;stroke-width:3;" x="682.219318" xlink:href="#m618f2f0681" y="312.483139"/>
    </g>
   </g>
   <g id="line2d_77">
    <path clip-path="url(#p1ce248137a)" d="M 182.872727 395.501998 
L 231.117868 381.357231 
L 404.950553 369.317014 
L 542.177004 357.704567 
L 608.318526 353.971757 
L 648.741821 342.439179 
L 660.881325 341.290764 
L 678.715132 329.320268 
L 687.225299 314.671604 
L 688.664519 303.840387 
L 689.352841 297.876582 
L 689.790864 288.896714 
L 690.041163 287.266629 
L 690.291462 271.521253 
L 690.354037 243.882917 
" style="fill:none;stroke:#cc66e5;stroke-dasharray:11.1,4.8;stroke-dashoffset:0;stroke-width:3;"/>
    <defs>
     <path d="M 0 -3.5 
L -0.785799 -1.081559 
L -3.328698 -1.081559 
L -1.271449 0.413119 
L -2.057248 2.831559 
L -0 1.336881 
L 2.057248 2.831559 
L 1.271449 0.413119 
L 3.328698 -1.081559 
L 0.785799 -1.081559 
z
" id="m8ee0e65b8a" style="stroke:#cc66e5;stroke-linejoin:bevel;stroke-width:3;"/>
    </defs>
    <g clip-path="url(#p1ce248137a)">
     <use style="fill:#cc66e5;stroke:#cc66e5;stroke-linejoin:bevel;stroke-width:3;" x="182.872727" xlink:href="#m8ee0e65b8a" y="395.501998"/>
     <use style="fill:#cc66e5;stroke:#cc66e5;stroke-linejoin:bevel;stroke-width:3;" x="231.117868" xlink:href="#m8ee0e65b8a" y="381.357231"/>
     <use style="fill:#cc66e5;stroke:#cc66e5;stroke-linejoin:bevel;stroke-width:3;" x="404.950553" xlink:href="#m8ee0e65b8a" y="369.317014"/>
     <use style="fill:#cc66e5;stroke:#cc66e5;stroke-linejoin:bevel;stroke-width:3;" x="542.177004" xlink:href="#m8ee0e65b8a" y="357.704567"/>
     <use style="fill:#cc66e5;stroke:#cc66e5;stroke-linejoin:bevel;stroke-width:3;" x="608.318526" xlink:href="#m8ee0e65b8a" y="353.971757"/>
     <use style="fill:#cc66e5;stroke:#cc66e5;stroke-linejoin:bevel;stroke-width:3;" x="648.741821" xlink:href="#m8ee0e65b8a" y="342.439179"/>
     <use style="fill:#cc66e5;stroke:#cc66e5;stroke-linejoin:bevel;stroke-width:3;" x="660.881325" xlink:href="#m8ee0e65b8a" y="341.290764"/>
     <use style="fill:#cc66e5;stroke:#cc66e5;stroke-linejoin:bevel;stroke-width:3;" x="678.715132" xlink:href="#m8ee0e65b8a" y="329.320268"/>
     <use style="fill:#cc66e5;stroke:#cc66e5;stroke-linejoin:bevel;stroke-width:3;" x="687.225299" xlink:href="#m8ee0e65b8a" y="314.671604"/>
     <use style="fill:#cc66e5;stroke:#cc66e5;stroke-linejoin:bevel;stroke-width:3;" x="688.664519" xlink:href="#m8ee0e65b8a" y="303.840387"/>
     <use style="fill:#cc66e5;stroke:#cc66e5;stroke-linejoin:bevel;stroke-width:3;" x="689.352841" xlink:href="#m8ee0e65b8a" y="297.876582"/>
     <use style="fill:#cc66e5;stroke:#cc66e5;stroke-linejoin:bevel;stroke-width:3;" x="689.790864" xlink:href="#m8ee0e65b8a" y="288.896714"/>
     <use style="fill:#cc66e5;stroke:#cc66e5;stroke-linejoin:bevel;stroke-width:3;" x="690.041163" xlink:href="#m8ee0e65b8a" y="287.266629"/>
     <use style="fill:#cc66e5;stroke:#cc66e5;stroke-linejoin:bevel;stroke-width:3;" x="690.291462" xlink:href="#m8ee0e65b8a" y="271.521253"/>
     <use style="fill:#cc66e5;stroke:#cc66e5;stroke-linejoin:bevel;stroke-width:3;" x="690.354037" xlink:href="#m8ee0e65b8a" y="243.882917"/>
    </g>
   </g>
   <g id="line2d_78">
    <path clip-path="url(#p1ce248137a)" d="M 433.547219 306.407103 
L 536.107252 301.745543 
L 591.235616 299.62243 
L 654.748998 297.99706 
L 668.139997 296.133488 
L 676.274716 290.542101 
L 682.281893 285.286934 
L 684.534584 274.65202 
L 686.349252 268.128819 
L 688.28907 255.191168 
L 689.47799 252.261214 
L 689.853439 240.96436 
L 690.541761 227.7823 
" style="fill:none;stroke:#ccffff;stroke-dasharray:19.2,4.8,3,4.8;stroke-dashoffset:0;stroke-width:3;"/>
    <defs>
     <path d="M -3.5 3.5 
L 3.5 -3.5 
M -3.5 -3.5 
L 3.5 3.5 
" id="m9f37934a78" style="stroke:#ccffff;stroke-width:3;"/>
    </defs>
    <g clip-path="url(#p1ce248137a)">
     <use style="fill:#ccffff;stroke:#ccffff;stroke-width:3;" x="433.547219" xlink:href="#m9f37934a78" y="306.407103"/>
     <use style="fill:#ccffff;stroke:#ccffff;stroke-width:3;" x="536.107252" xlink:href="#m9f37934a78" y="301.745543"/>
     <use style="fill:#ccffff;stroke:#ccffff;stroke-width:3;" x="591.235616" xlink:href="#m9f37934a78" y="299.62243"/>
     <use style="fill:#ccffff;stroke:#ccffff;stroke-width:3;" x="654.748998" xlink:href="#m9f37934a78" y="297.99706"/>
     <use style="fill:#ccffff;stroke:#ccffff;stroke-width:3;" x="668.139997" xlink:href="#m9f37934a78" y="296.133488"/>
     <use style="fill:#ccffff;stroke:#ccffff;stroke-width:3;" x="676.274716" xlink:href="#m9f37934a78" y="290.542101"/>
     <use style="fill:#ccffff;stroke:#ccffff;stroke-width:3;" x="682.281893" xlink:href="#m9f37934a78" y="285.286934"/>
     <use style="fill:#ccffff;stroke:#ccffff;stroke-width:3;" x="684.534584" xlink:href="#m9f37934a78" y="274.65202"/>
     <use style="fill:#ccffff;stroke:#ccffff;stroke-width:3;" x="686.349252" xlink:href="#m9f37934a78" y="268.128819"/>
     <use style="fill:#ccffff;stroke:#ccffff;stroke-width:3;" x="688.28907" xlink:href="#m9f37934a78" y="255.191168"/>
     <use style="fill:#ccffff;stroke:#ccffff;stroke-width:3;" x="689.47799" xlink:href="#m9f37934a78" y="252.261214"/>
     <use style="fill:#ccffff;stroke:#ccffff;stroke-width:3;" x="689.853439" xlink:href="#m9f37934a78" y="240.96436"/>
     <use style="fill:#ccffff;stroke:#ccffff;stroke-width:3;" x="690.541761" xlink:href="#m9f37934a78" y="227.7823"/>
    </g>
   </g>
   <g id="line2d_79">
    <path clip-path="url(#p1ce248137a)" d="M 140.134166 397.581386 
L 143.325478 386.276602 
L 156.341029 360.897963 
L 192.008642 339.595183 
L 238.126241 326.111471 
L 431.98285 299.857714 
L 638.166687 289.098535 
L 690.041163 278.653988 
L 690.354037 168.946573 
" style="fill:none;stroke:#66ffff;stroke-dasharray:19.2,4.8,3,4.8;stroke-dashoffset:0;stroke-width:3;"/>
    <defs>
     <path d="M -3.5 -0 
L 3.5 3.5 
L 3.5 -3.5 
z
" id="m0b50b4a62e" style="stroke:#66ffff;stroke-linejoin:miter;stroke-width:3;"/>
    </defs>
    <g clip-path="url(#p1ce248137a)">
     <use style="fill:#66ffff;stroke:#66ffff;stroke-linejoin:miter;stroke-width:3;" x="140.134166" xlink:href="#m0b50b4a62e" y="397.581386"/>
     <use style="fill:#66ffff;stroke:#66ffff;stroke-linejoin:miter;stroke-width:3;" x="143.325478" xlink:href="#m0b50b4a62e" y="386.276602"/>
     <use style="fill:#66ffff;stroke:#66ffff;stroke-linejoin:miter;stroke-width:3;" x="156.341029" xlink:href="#m0b50b4a62e" y="360.897963"/>
     <use style="fill:#66ffff;stroke:#66ffff;stroke-linejoin:miter;stroke-width:3;" x="192.008642" xlink:href="#m0b50b4a62e" y="339.595183"/>
     <use style="fill:#66ffff;stroke:#66ffff;stroke-linejoin:miter;stroke-width:3;" x="238.126241" xlink:href="#m0b50b4a62e" y="326.111471"/>
     <use style="fill:#66ffff;stroke:#66ffff;stroke-linejoin:miter;stroke-width:3;" x="431.98285" xlink:href="#m0b50b4a62e" y="299.857714"/>
     <use style="fill:#66ffff;stroke:#66ffff;stroke-linejoin:miter;stroke-width:3;" x="638.166687" xlink:href="#m0b50b4a62e" y="289.098535"/>
     <use style="fill:#66ffff;stroke:#66ffff;stroke-linejoin:miter;stroke-width:3;" x="690.041163" xlink:href="#m0b50b4a62e" y="278.653988"/>
     <use style="fill:#66ffff;stroke:#66ffff;stroke-linejoin:miter;stroke-width:3;" x="690.354037" xlink:href="#m0b50b4a62e" y="168.946573"/>
    </g>
   </g>
   <g id="line2d_80">
    <path clip-path="url(#p1ce248137a)" d="M 140.134166 401.868184 
L 140.947638 399.251851 
L 149.770679 385.18516 
L 235.810975 348.614819 
L 367.468272 326.030123 
L 598.243989 304.229424 
L 688.852243 287.413819 
L 690.354037 184.57261 
" style="fill:none;stroke:#ffb2ff;stroke-linecap:square;stroke-width:3;"/>
    <defs>
     <path d="M 0 3.5 
C 0.928211 3.5 1.81853 3.131218 2.474874 2.474874 
C 3.131218 1.81853 3.5 0.928211 3.5 0 
C 3.5 -0.928211 3.131218 -1.81853 2.474874 -2.474874 
C 1.81853 -3.131218 0.928211 -3.5 0 -3.5 
C -0.928211 -3.5 -1.81853 -3.131218 -2.474874 -2.474874 
C -3.131218 -1.81853 -3.5 -0.928211 -3.5 0 
C -3.5 0.928211 -3.131218 1.81853 -2.474874 2.474874 
C -1.81853 3.131218 -0.928211 3.5 0 3.5 
z
" id="m6275032afa" style="stroke:#ffb2ff;stroke-width:3;"/>
    </defs>
    <g clip-path="url(#p1ce248137a)">
     <use style="fill:#ffb2ff;stroke:#ffb2ff;stroke-width:3;" x="140.134166" xlink:href="#m6275032afa" y="401.868184"/>
     <use style="fill:#ffb2ff;stroke:#ffb2ff;stroke-width:3;" x="140.947638" xlink:href="#m6275032afa" y="399.251851"/>
     <use style="fill:#ffb2ff;stroke:#ffb2ff;stroke-width:3;" x="149.770679" xlink:href="#m6275032afa" y="385.18516"/>
     <use style="fill:#ffb2ff;stroke:#ffb2ff;stroke-width:3;" x="235.810975" xlink:href="#m6275032afa" y="348.614819"/>
     <use style="fill:#ffb2ff;stroke:#ffb2ff;stroke-width:3;" x="367.468272" xlink:href="#m6275032afa" y="326.030123"/>
     <use style="fill:#ffb2ff;stroke:#ffb2ff;stroke-width:3;" x="598.243989" xlink:href="#m6275032afa" y="304.229424"/>
     <use style="fill:#ffb2ff;stroke:#ffb2ff;stroke-width:3;" x="688.852243" xlink:href="#m6275032afa" y="287.413819"/>
     <use style="fill:#ffb2ff;stroke:#ffb2ff;stroke-width:3;" x="690.354037" xlink:href="#m6275032afa" y="184.57261"/>
    </g>
   </g>
   <g id="line2d_81">
    <path clip-path="url(#p1ce248137a)" d="M 81.814489 498.598125 
" style="fill:none;stroke:#66e599;stroke-linecap:square;stroke-width:3;"/>
    <defs>
     <path d="M -3.5 0 
L 3.5 0 
M 0 3.5 
L 0 -3.5 
" id="mdf2c663e2c" style="stroke:#66e599;stroke-width:3;"/>
    </defs>
    <g clip-path="url(#p1ce248137a)">
     <use style="fill:#66e599;stroke:#66e599;stroke-width:3;" x="81.814489" xlink:href="#mdf2c663e2c" y="498.598125"/>
    </g>
   </g>
   <g id="line2d_82">
    <path clip-path="url(#p1ce248137a)" d="M 535.043481 324.739917 
L 557.069797 323.862121 
L 569.084151 323.168871 
L 577.09372 322.668889 
L 582.788023 321.888322 
L 599.370335 320.029227 
L 608.130801 317.915397 
L 614.075404 315.65116 
L 618.393062 314.353319 
L 622.084973 312.844637 
L 628.154725 303.534673 
L 642.672069 298.543453 
L 650.118466 292.065768 
L 656.313367 287.214659 
L 661.444498 286.771533 
L 668.70317 281.616979 
L 674.334898 279.182384 
L 681.656145 266.972016 
L 683.971411 266.124099 
L 687.037575 243.60336 
L 688.28907 240.264232 
L 688.601944 214.581882 
L 689.290266 207.627427 
" style="fill:none;stroke:#b2ff66;stroke-dasharray:3,4.95;stroke-dashoffset:0;stroke-width:3;"/>
    <defs>
     <path d="M 0 -3.5 
L -0.785799 -1.081559 
L -3.328698 -1.081559 
L -1.271449 0.413119 
L -2.057248 2.831559 
L -0 1.336881 
L 2.057248 2.831559 
L 1.271449 0.413119 
L 3.328698 -1.081559 
L 0.785799 -1.081559 
z
" id="m7fd6b6f258" style="stroke:#b2ff66;stroke-linejoin:bevel;stroke-width:3;"/>
    </defs>
    <g clip-path="url(#p1ce248137a)">
     <use style="fill:#b2ff66;stroke:#b2ff66;stroke-linejoin:bevel;stroke-width:3;" x="535.043481" xlink:href="#m7fd6b6f258" y="324.739917"/>
     <use style="fill:#b2ff66;stroke:#b2ff66;stroke-linejoin:bevel;stroke-width:3;" x="557.069797" xlink:href="#m7fd6b6f258" y="323.862121"/>
     <use style="fill:#b2ff66;stroke:#b2ff66;stroke-linejoin:bevel;stroke-width:3;" x="569.084151" xlink:href="#m7fd6b6f258" y="323.168871"/>
     <use style="fill:#b2ff66;stroke:#b2ff66;stroke-linejoin:bevel;stroke-width:3;" x="577.09372" xlink:href="#m7fd6b6f258" y="322.668889"/>
     <use style="fill:#b2ff66;stroke:#b2ff66;stroke-linejoin:bevel;stroke-width:3;" x="582.788023" xlink:href="#m7fd6b6f258" y="321.888322"/>
     <use style="fill:#b2ff66;stroke:#b2ff66;stroke-linejoin:bevel;stroke-width:3;" x="599.370335" xlink:href="#m7fd6b6f258" y="320.029227"/>
     <use style="fill:#b2ff66;stroke:#b2ff66;stroke-linejoin:bevel;stroke-width:3;" x="608.130801" xlink:href="#m7fd6b6f258" y="317.915397"/>
     <use style="fill:#b2ff66;stroke:#b2ff66;stroke-linejoin:bevel;stroke-width:3;" x="614.075404" xlink:href="#m7fd6b6f258" y="315.65116"/>
     <use style="fill:#b2ff66;stroke:#b2ff66;stroke-linejoin:bevel;stroke-width:3;" x="618.393062" xlink:href="#m7fd6b6f258" y="314.353319"/>
     <use style="fill:#b2ff66;stroke:#b2ff66;stroke-linejoin:bevel;stroke-width:3;" x="622.084973" xlink:href="#m7fd6b6f258" y="312.844637"/>
     <use style="fill:#b2ff66;stroke:#b2ff66;stroke-linejoin:bevel;stroke-width:3;" x="628.154725" xlink:href="#m7fd6b6f258" y="303.534673"/>
     <use style="fill:#b2ff66;stroke:#b2ff66;stroke-linejoin:bevel;stroke-width:3;" x="642.672069" xlink:href="#m7fd6b6f258" y="298.543453"/>
     <use style="fill:#b2ff66;stroke:#b2ff66;stroke-linejoin:bevel;stroke-width:3;" x="650.118466" xlink:href="#m7fd6b6f258" y="292.065768"/>
     <use style="fill:#b2ff66;stroke:#b2ff66;stroke-linejoin:bevel;stroke-width:3;" x="656.313367" xlink:href="#m7fd6b6f258" y="287.214659"/>
     <use style="fill:#b2ff66;stroke:#b2ff66;stroke-linejoin:bevel;stroke-width:3;" x="661.444498" xlink:href="#m7fd6b6f258" y="286.771533"/>
     <use style="fill:#b2ff66;stroke:#b2ff66;stroke-linejoin:bevel;stroke-width:3;" x="668.70317" xlink:href="#m7fd6b6f258" y="281.616979"/>
     <use style="fill:#b2ff66;stroke:#b2ff66;stroke-linejoin:bevel;stroke-width:3;" x="674.334898" xlink:href="#m7fd6b6f258" y="279.182384"/>
     <use style="fill:#b2ff66;stroke:#b2ff66;stroke-linejoin:bevel;stroke-width:3;" x="681.656145" xlink:href="#m7fd6b6f258" y="266.972016"/>
     <use style="fill:#b2ff66;stroke:#b2ff66;stroke-linejoin:bevel;stroke-width:3;" x="683.971411" xlink:href="#m7fd6b6f258" y="266.124099"/>
     <use style="fill:#b2ff66;stroke:#b2ff66;stroke-linejoin:bevel;stroke-width:3;" x="687.037575" xlink:href="#m7fd6b6f258" y="243.60336"/>
     <use style="fill:#b2ff66;stroke:#b2ff66;stroke-linejoin:bevel;stroke-width:3;" x="688.28907" xlink:href="#m7fd6b6f258" y="240.264232"/>
     <use style="fill:#b2ff66;stroke:#b2ff66;stroke-linejoin:bevel;stroke-width:3;" x="688.601944" xlink:href="#m7fd6b6f258" y="214.581882"/>
     <use style="fill:#b2ff66;stroke:#b2ff66;stroke-linejoin:bevel;stroke-width:3;" x="689.290266" xlink:href="#m7fd6b6f258" y="207.627427"/>
    </g>
   </g>
   <g id="patch_3">
    <path d="M 51.378125 521.278125 
L 51.378125 22.318125 
" style="fill:none;stroke:#000000;stroke-linecap:square;stroke-linejoin:miter;stroke-width:0.8;"/>
   </g>
   <g id="patch_4">
    <path d="M 720.978125 521.278125 
L 720.978125 22.318125 
" style="fill:none;stroke:#000000;stroke-linecap:square;stroke-linejoin:miter;stroke-width:0.8;"/>
   </g>
   <g id="patch_5">
    <path d="M 51.378125 521.278125 
L 720.978125 521.278125 
" style="fill:none;stroke:#000000;stroke-linecap:square;stroke-linejoin:miter;stroke-width:0.8;"/>
   </g>
   <g id="patch_6">
    <path d="M 51.378125 22.318125 
L 720.978125 22.318125 
" style="fill:none;stroke:#000000;stroke-linecap:square;stroke-linejoin:miter;stroke-width:0.8;"/>
   </g>
   <g id="text_15">
    <!-- Accuracy-R@1-Best query search time (s) tradeoff - down and to the right is better -->
    <defs>
     <path d="M 45.40625 46.390625 
L 45.40625 75.984375 
L 54.390625 75.984375 
L 54.390625 0 
L 45.40625 0 
L 45.40625 8.203125 
Q 42.578125 3.328125 38.25 0.953125 
Q 33.9375 -1.421875 27.875 -1.421875 
Q 17.96875 -1.421875 11.734375 6.484375 
Q 5.515625 14.40625 5.515625 27.296875 
Q 5.515625 40.1875 11.734375 48.09375 
Q 17.96875 56 27.875 56 
Q 33.9375 56 38.25 53.625 
Q 42.578125 51.265625 45.40625 46.390625 
z
M 14.796875 27.296875 
Q 14.796875 17.390625 18.875 11.75 
Q 22.953125 6.109375 30.078125 6.109375 
Q 37.203125 6.109375 41.296875 11.75 
Q 45.40625 17.390625 45.40625 27.296875 
Q 45.40625 37.203125 41.296875 42.84375 
Q 37.203125 48.484375 30.078125 48.484375 
Q 22.953125 48.484375 18.875 42.84375 
Q 14.796875 37.203125 14.796875 27.296875 
z
" id="DejaVuSans-100"/>
     <path d="M 30.609375 48.390625 
Q 23.390625 48.390625 19.1875 42.75 
Q 14.984375 37.109375 14.984375 27.296875 
Q 14.984375 17.484375 19.15625 11.84375 
Q 23.34375 6.203125 30.609375 6.203125 
Q 37.796875 6.203125 41.984375 11.859375 
Q 46.1875 17.53125 46.1875 27.296875 
Q 46.1875 37.015625 41.984375 42.703125 
Q 37.796875 48.390625 30.609375 48.390625 
z
M 30.609375 56 
Q 42.328125 56 49.015625 48.375 
Q 55.71875 40.765625 55.71875 27.296875 
Q 55.71875 13.875 49.015625 6.21875 
Q 42.328125 -1.421875 30.609375 -1.421875 
Q 18.84375 -1.421875 12.171875 6.21875 
Q 5.515625 13.875 5.515625 27.296875 
Q 5.515625 40.765625 12.171875 48.375 
Q 18.84375 56 30.609375 56 
z
" id="DejaVuSans-111"/>
     <path d="M 37.109375 75.984375 
L 37.109375 68.5 
L 28.515625 68.5 
Q 23.6875 68.5 21.796875 66.546875 
Q 19.921875 64.59375 19.921875 59.515625 
L 19.921875 54.6875 
L 34.71875 54.6875 
L 34.71875 47.703125 
L 19.921875 47.703125 
L 19.921875 0 
L 10.890625 0 
L 10.890625 47.703125 
L 2.296875 47.703125 
L 2.296875 54.6875 
L 10.890625 54.6875 
L 10.890625 58.5 
Q 10.890625 67.625 15.140625 71.796875 
Q 19.390625 75.984375 28.609375 75.984375 
z
" id="DejaVuSans-102"/>
     <path d="M 4.203125 54.6875 
L 13.1875 54.6875 
L 24.421875 12.015625 
L 35.59375 54.6875 
L 46.1875 54.6875 
L 57.421875 12.015625 
L 68.609375 54.6875 
L 77.59375 54.6875 
L 63.28125 0 
L 52.6875 0 
L 40.921875 44.828125 
L 29.109375 0 
L 18.5 0 
z
" id="DejaVuSans-119"/>
     <path d="M 54.890625 33.015625 
L 54.890625 0 
L 45.90625 0 
L 45.90625 32.71875 
Q 45.90625 40.484375 42.875 44.328125 
Q 39.84375 48.1875 33.796875 48.1875 
Q 26.515625 48.1875 22.3125 43.546875 
Q 18.109375 38.921875 18.109375 30.90625 
L 18.109375 0 
L 9.078125 0 
L 9.078125 54.6875 
L 18.109375 54.6875 
L 18.109375 46.1875 
Q 21.34375 51.125 25.703125 53.5625 
Q 30.078125 56 35.796875 56 
Q 45.21875 56 50.046875 50.171875 
Q 54.890625 44.34375 54.890625 33.015625 
z
" id="DejaVuSans-110"/>
     <path d="M 45.40625 27.984375 
Q 45.40625 37.75 41.375 43.109375 
Q 37.359375 48.484375 30.078125 48.484375 
Q 22.859375 48.484375 18.828125 43.109375 
Q 14.796875 37.75 14.796875 27.984375 
Q 14.796875 18.265625 18.828125 12.890625 
Q 22.859375 7.515625 30.078125 7.515625 
Q 37.359375 7.515625 41.375 12.890625 
Q 45.40625 18.265625 45.40625 27.984375 
z
M 54.390625 6.78125 
Q 54.390625 -7.171875 48.1875 -13.984375 
Q 42 -20.796875 29.203125 -20.796875 
Q 24.46875 -20.796875 20.265625 -20.09375 
Q 16.0625 -19.390625 12.109375 -17.921875 
L 12.109375 -9.1875 
Q 16.0625 -11.328125 19.921875 -12.34375 
Q 23.78125 -13.375 27.78125 -13.375 
Q 36.625 -13.375 41.015625 -8.765625 
Q 45.40625 -4.15625 45.40625 5.171875 
L 45.40625 9.625 
Q 42.625 4.78125 38.28125 2.390625 
Q 33.9375 0 27.875 0 
Q 17.828125 0 11.671875 7.65625 
Q 5.515625 15.328125 5.515625 27.984375 
Q 5.515625 40.671875 11.671875 48.328125 
Q 17.828125 56 27.875 56 
Q 33.9375 56 38.28125 53.609375 
Q 42.625 51.21875 45.40625 46.390625 
L 45.40625 54.6875 
L 54.390625 54.6875 
z
" id="DejaVuSans-103"/>
     <path d="M 48.6875 27.296875 
Q 48.6875 37.203125 44.609375 42.84375 
Q 40.53125 48.484375 33.40625 48.484375 
Q 26.265625 48.484375 22.1875 42.84375 
Q 18.109375 37.203125 18.109375 27.296875 
Q 18.109375 17.390625 22.1875 11.75 
Q 26.265625 6.109375 33.40625 6.109375 
Q 40.53125 6.109375 44.609375 11.75 
Q 48.6875 17.390625 48.6875 27.296875 
z
M 18.109375 46.390625 
Q 20.953125 51.265625 25.265625 53.625 
Q 29.59375 56 35.59375 56 
Q 45.5625 56 51.78125 48.09375 
Q 58.015625 40.1875 58.015625 27.296875 
Q 58.015625 14.40625 51.78125 6.484375 
Q 45.5625 -1.421875 35.59375 -1.421875 
Q 29.59375 -1.421875 25.265625 0.953125 
Q 20.953125 3.328125 18.109375 8.203125 
L 18.109375 0 
L 9.078125 0 
L 9.078125 75.984375 
L 18.109375 75.984375 
z
" id="DejaVuSans-98"/>
    </defs>
    <g transform="translate(137.445313 16.318125)scale(0.12 -0.12)">
     <use xlink:href="#DejaVuSans-65"/>
     <use x="66.658203" xlink:href="#DejaVuSans-99"/>
     <use x="121.638672" xlink:href="#DejaVuSans-99"/>
     <use x="176.619141" xlink:href="#DejaVuSans-117"/>
     <use x="239.998047" xlink:href="#DejaVuSans-114"/>
     <use x="281.111328" xlink:href="#DejaVuSans-97"/>
     <use x="342.390625" xlink:href="#DejaVuSans-99"/>
     <use x="397.371094" xlink:href="#DejaVuSans-121"/>
     <use x="454.800781" xlink:href="#DejaVuSans-45"/>
     <use x="490.884766" xlink:href="#DejaVuSans-82"/>
     <use x="560.367188" xlink:href="#DejaVuSans-64"/>
     <use x="660.367188" xlink:href="#DejaVuSans-49"/>
     <use x="723.990234" xlink:href="#DejaVuSans-45"/>
     <use x="756.449219" xlink:href="#DejaVuSans-66"/>
     <use x="825.052734" xlink:href="#DejaVuSans-101"/>
     <use x="886.576172" xlink:href="#DejaVuSans-115"/>
     <use x="938.675781" xlink:href="#DejaVuSans-116"/>
     <use x="977.884766" xlink:href="#DejaVuSans-32"/>
     <use x="1009.671875" xlink:href="#DejaVuSans-113"/>
     <use x="1073.148438" xlink:href="#DejaVuSans-117"/>
     <use x="1136.527344" xlink:href="#DejaVuSans-101"/>
     <use x="1198.050781" xlink:href="#DejaVuSans-114"/>
     <use x="1239.164062" xlink:href="#DejaVuSans-121"/>
     <use x="1298.34375" xlink:href="#DejaVuSans-32"/>
     <use x="1330.130859" xlink:href="#DejaVuSans-115"/>
     <use x="1382.230469" xlink:href="#DejaVuSans-101"/>
     <use x="1443.753906" xlink:href="#DejaVuSans-97"/>
     <use x="1505.033203" xlink:href="#DejaVuSans-114"/>
     <use x="1543.896484" xlink:href="#DejaVuSans-99"/>
     <use x="1598.876953" xlink:href="#DejaVuSans-104"/>
     <use x="1662.255859" xlink:href="#DejaVuSans-32"/>
     <use x="1694.042969" xlink:href="#DejaVuSans-116"/>
     <use x="1733.251953" xlink:href="#DejaVuSans-105"/>
     <use x="1761.035156" xlink:href="#DejaVuSans-109"/>
     <use x="1858.447266" xlink:href="#DejaVuSans-101"/>
     <use x="1919.970703" xlink:href="#DejaVuSans-32"/>
     <use x="1951.757812" xlink:href="#DejaVuSans-40"/>
     <use x="1990.771484" xlink:href="#DejaVuSans-115"/>
     <use x="2042.871094" xlink:href="#DejaVuSans-41"/>
     <use x="2081.884766" xlink:href="#DejaVuSans-32"/>
     <use x="2113.671875" xlink:href="#DejaVuSans-116"/>
     <use x="2152.880859" xlink:href="#DejaVuSans-114"/>
     <use x="2193.994141" xlink:href="#DejaVuSans-97"/>
     <use x="2255.273438" xlink:href="#DejaVuSans-100"/>
     <use x="2318.75" xlink:href="#DejaVuSans-101"/>
     <use x="2380.273438" xlink:href="#DejaVuSans-111"/>
     <use x="2441.455078" xlink:href="#DejaVuSans-102"/>
     <use x="2476.660156" xlink:href="#DejaVuSans-102"/>
     <use x="2511.865234" xlink:href="#DejaVuSans-32"/>
     <use x="2543.652344" xlink:href="#DejaVuSans-45"/>
     <use x="2579.736328" xlink:href="#DejaVuSans-32"/>
     <use x="2611.523438" xlink:href="#DejaVuSans-100"/>
     <use x="2675" xlink:href="#DejaVuSans-111"/>
     <use x="2736.181641" xlink:href="#DejaVuSans-119"/>
     <use x="2817.96875" xlink:href="#DejaVuSans-110"/>
     <use x="2881.347656" xlink:href="#DejaVuSans-32"/>
     <use x="2913.134766" xlink:href="#DejaVuSans-97"/>
     <use x="2974.414062" xlink:href="#DejaVuSans-110"/>
     <use x="3037.792969" xlink:href="#DejaVuSans-100"/>
     <use x="3101.269531" xlink:href="#DejaVuSans-32"/>
     <use x="3133.056641" xlink:href="#DejaVuSans-116"/>
     <use x="3172.265625" xlink:href="#DejaVuSans-111"/>
     <use x="3233.447266" xlink:href="#DejaVuSans-32"/>
     <use x="3265.234375" xlink:href="#DejaVuSans-116"/>
     <use x="3304.443359" xlink:href="#DejaVuSans-104"/>
     <use x="3367.822266" xlink:href="#DejaVuSans-101"/>
     <use x="3429.345703" xlink:href="#DejaVuSans-32"/>
     <use x="3461.132812" xlink:href="#DejaVuSans-114"/>
     <use x="3502.246094" xlink:href="#DejaVuSans-105"/>
     <use x="3530.029297" xlink:href="#DejaVuSans-103"/>
     <use x="3593.505859" xlink:href="#DejaVuSans-104"/>
     <use x="3656.884766" xlink:href="#DejaVuSans-116"/>
     <use x="3696.09375" xlink:href="#DejaVuSans-32"/>
     <use x="3727.880859" xlink:href="#DejaVuSans-105"/>
     <use x="3755.664062" xlink:href="#DejaVuSans-115"/>
     <use x="3807.763672" xlink:href="#DejaVuSans-32"/>
     <use x="3839.550781" xlink:href="#DejaVuSans-98"/>
     <use x="3903.027344" xlink:href="#DejaVuSans-101"/>
     <use x="3964.550781" xlink:href="#DejaVuSans-116"/>
     <use x="4003.759766" xlink:href="#DejaVuSans-116"/>
     <use x="4042.96875" xlink:href="#DejaVuSans-101"/>
     <use x="4104.492188" xlink:href="#DejaVuSans-114"/>
    </g>
   </g>
   <g id="legend_1">
    <g id="patch_7">
     <path d="M 727.278125 345.804844 
L 836.819375 345.804844 
Q 838.619375 345.804844 838.619375 344.004844 
L 838.619375 199.591406 
Q 838.619375 197.791406 836.819375 197.791406 
L 727.278125 197.791406 
Q 725.478125 197.791406 725.478125 199.591406 
L 725.478125 344.004844 
Q 725.478125 345.804844 727.278125 345.804844 
z
" style="fill:#ffffff;opacity:0.8;stroke:#cccccc;stroke-linejoin:miter;"/>
    </g>
    <g id="line2d_83">
     <path d="M 729.078125 205.08 
L 747.078125 205.08 
" style="fill:none;stroke:#6666cc;stroke-dasharray:11.1,4.8;stroke-dashoffset:0;stroke-width:3;"/>
    </g>
    <g id="line2d_84">
     <g>
      <use style="fill:#6666cc;stroke:#6666cc;stroke-width:3;" x="738.078125" xlink:href="#m9448be7c1f" y="205.08"/>
     </g>
    </g>
    <g id="text_16">
     <!-- annoy -->
     <g transform="translate(754.278125 208.23)scale(0.09 -0.09)">
      <use xlink:href="#DejaVuSans-97"/>
      <use x="61.279297" xlink:href="#DejaVuSans-110"/>
      <use x="124.658203" xlink:href="#DejaVuSans-110"/>
      <use x="188.037109" xlink:href="#DejaVuSans-111"/>
      <use x="249.21875" xlink:href="#DejaVuSans-121"/>
     </g>
    </g>
    <g id="line2d_85">
     <path d="M 729.078125 218.290312 
L 747.078125 218.290312 
" style="fill:none;stroke:#e66666;stroke-dasharray:11.1,4.8;stroke-dashoffset:0;stroke-width:3;"/>
    </g>
    <g id="line2d_86">
     <g>
      <use style="fill:#e66666;stroke:#e66666;stroke-width:3;" x="738.078125" xlink:href="#m6029f9ec34" y="218.290312"/>
     </g>
    </g>
    <g id="text_17">
     <!-- BallTree(nmslib) -->
     <defs>
      <path d="M 9.421875 75.984375 
L 18.40625 75.984375 
L 18.40625 0 
L 9.421875 0 
z
" id="DejaVuSans-108"/>
      <path d="M -0.296875 72.90625 
L 61.375 72.90625 
L 61.375 64.59375 
L 35.5 64.59375 
L 35.5 0 
L 25.59375 0 
L 25.59375 64.59375 
L -0.296875 64.59375 
z
" id="DejaVuSans-84"/>
     </defs>
     <g transform="translate(754.278125 221.440312)scale(0.09 -0.09)">
      <use xlink:href="#DejaVuSans-66"/>
      <use x="68.603516" xlink:href="#DejaVuSans-97"/>
      <use x="129.882812" xlink:href="#DejaVuSans-108"/>
      <use x="157.666016" xlink:href="#DejaVuSans-108"/>
      <use x="185.449219" xlink:href="#DejaVuSans-84"/>
      <use x="231.783203" xlink:href="#DejaVuSans-114"/>
      <use x="270.646484" xlink:href="#DejaVuSans-101"/>
      <use x="332.169922" xlink:href="#DejaVuSans-101"/>
      <use x="393.693359" xlink:href="#DejaVuSans-40"/>
      <use x="432.707031" xlink:href="#DejaVuSans-110"/>
      <use x="496.085938" xlink:href="#DejaVuSans-109"/>
      <use x="593.498047" xlink:href="#DejaVuSans-115"/>
      <use x="645.597656" xlink:href="#DejaVuSans-108"/>
      <use x="673.380859" xlink:href="#DejaVuSans-105"/>
      <use x="701.164062" xlink:href="#DejaVuSans-98"/>
      <use x="764.640625" xlink:href="#DejaVuSans-41"/>
     </g>
    </g>
    <g id="line2d_87">
     <path d="M 729.078125 231.500625 
L 747.078125 231.500625 
" style="fill:none;stroke:#669966;stroke-dasharray:19.2,4.8,3,4.8;stroke-dashoffset:0;stroke-width:3;"/>
    </g>
    <g id="line2d_88">
     <g>
      <use style="fill:#669966;stroke:#669966;stroke-width:3;" x="738.078125" xlink:href="#m78b2a7f41d" y="231.500625"/>
     </g>
    </g>
    <g id="text_18">
     <!-- bruteforce-blas -->
     <g transform="translate(754.278125 234.650625)scale(0.09 -0.09)">
      <use xlink:href="#DejaVuSans-98"/>
      <use x="63.476562" xlink:href="#DejaVuSans-114"/>
      <use x="104.589844" xlink:href="#DejaVuSans-117"/>
      <use x="167.96875" xlink:href="#DejaVuSans-116"/>
      <use x="207.177734" xlink:href="#DejaVuSans-101"/>
      <use x="268.701172" xlink:href="#DejaVuSans-102"/>
      <use x="303.90625" xlink:href="#DejaVuSans-111"/>
      <use x="365.087891" xlink:href="#DejaVuSans-114"/>
      <use x="403.951172" xlink:href="#DejaVuSans-99"/>
      <use x="458.931641" xlink:href="#DejaVuSans-101"/>
      <use x="520.455078" xlink:href="#DejaVuSans-45"/>
      <use x="556.539062" xlink:href="#DejaVuSans-98"/>
      <use x="620.015625" xlink:href="#DejaVuSans-108"/>
      <use x="647.798828" xlink:href="#DejaVuSans-97"/>
      <use x="709.078125" xlink:href="#DejaVuSans-115"/>
     </g>
    </g>
    <g id="line2d_89">
     <path d="M 729.078125 244.710937 
L 747.078125 244.710937 
" style="fill:none;stroke:#b2b2b2;stroke-linecap:square;stroke-width:3;"/>
    </g>
    <g id="line2d_90">
     <g>
      <use style="fill:#b2b2b2;stroke:#b2b2b2;stroke-linejoin:miter;stroke-width:3;" x="738.078125" xlink:href="#m8ea4fdcef7" y="244.710937"/>
     </g>
    </g>
    <g id="text_19">
     <!-- faiss-ivf -->
     <defs>
      <path d="M 2.984375 54.6875 
L 12.5 54.6875 
L 29.59375 8.796875 
L 46.6875 54.6875 
L 56.203125 54.6875 
L 35.6875 0 
L 23.484375 0 
z
" id="DejaVuSans-118"/>
     </defs>
     <g transform="translate(754.278125 247.860937)scale(0.09 -0.09)">
      <use xlink:href="#DejaVuSans-102"/>
      <use x="35.205078" xlink:href="#DejaVuSans-97"/>
      <use x="96.484375" xlink:href="#DejaVuSans-105"/>
      <use x="124.267578" xlink:href="#DejaVuSans-115"/>
      <use x="176.367188" xlink:href="#DejaVuSans-115"/>
      <use x="228.466797" xlink:href="#DejaVuSans-45"/>
      <use x="264.550781" xlink:href="#DejaVuSans-105"/>
      <use x="292.333984" xlink:href="#DejaVuSans-118"/>
      <use x="351.513672" xlink:href="#DejaVuSans-102"/>
     </g>
    </g>
    <g id="line2d_91">
     <path d="M 729.078125 257.92125 
L 747.078125 257.92125 
" style="fill:none;stroke:#ffffb2;stroke-dasharray:3,4.95;stroke-dashoffset:0;stroke-width:3;"/>
    </g>
    <g id="line2d_92">
     <g>
      <use style="fill:#ffffb2;stroke:#ffffb2;stroke-width:3;" x="738.078125" xlink:href="#m618f2f0681" y="257.92125"/>
     </g>
    </g>
    <g id="text_20">
     <!-- hnsw(nmslib) -->
     <g transform="translate(754.278125 261.07125)scale(0.09 -0.09)">
      <use xlink:href="#DejaVuSans-104"/>
      <use x="63.378906" xlink:href="#DejaVuSans-110"/>
      <use x="126.757812" xlink:href="#DejaVuSans-115"/>
      <use x="178.857422" xlink:href="#DejaVuSans-119"/>
      <use x="260.644531" xlink:href="#DejaVuSans-40"/>
      <use x="299.658203" xlink:href="#DejaVuSans-110"/>
      <use x="363.037109" xlink:href="#DejaVuSans-109"/>
      <use x="460.449219" xlink:href="#DejaVuSans-115"/>
      <use x="512.548828" xlink:href="#DejaVuSans-108"/>
      <use x="540.332031" xlink:href="#DejaVuSans-105"/>
      <use x="568.115234" xlink:href="#DejaVuSans-98"/>
      <use x="631.591797" xlink:href="#DejaVuSans-41"/>
     </g>
    </g>
    <g id="line2d_93">
     <path d="M 729.078125 271.131562 
L 747.078125 271.131562 
" style="fill:none;stroke:#cc66e5;stroke-dasharray:11.1,4.8;stroke-dashoffset:0;stroke-width:3;"/>
    </g>
    <g id="line2d_94">
     <g>
      <use style="fill:#cc66e5;stroke:#cc66e5;stroke-linejoin:bevel;stroke-width:3;" x="738.078125" xlink:href="#m8ee0e65b8a" y="271.131562"/>
     </g>
    </g>
    <g id="text_21">
     <!-- hnswlib -->
     <g transform="translate(754.278125 274.281562)scale(0.09 -0.09)">
      <use xlink:href="#DejaVuSans-104"/>
      <use x="63.378906" xlink:href="#DejaVuSans-110"/>
      <use x="126.757812" xlink:href="#DejaVuSans-115"/>
      <use x="178.857422" xlink:href="#DejaVuSans-119"/>
      <use x="260.644531" xlink:href="#DejaVuSans-108"/>
      <use x="288.427734" xlink:href="#DejaVuSans-105"/>
      <use x="316.210938" xlink:href="#DejaVuSans-98"/>
     </g>
    </g>
    <g id="line2d_95">
     <path d="M 729.078125 284.341875 
L 747.078125 284.341875 
" style="fill:none;stroke:#ccffff;stroke-dasharray:19.2,4.8,3,4.8;stroke-dashoffset:0;stroke-width:3;"/>
    </g>
    <g id="line2d_96">
     <g>
      <use style="fill:#ccffff;stroke:#ccffff;stroke-width:3;" x="738.078125" xlink:href="#m9f37934a78" y="284.341875"/>
     </g>
    </g>
    <g id="text_22">
     <!-- mrpt -->
     <defs>
      <path d="M 18.109375 8.203125 
L 18.109375 -20.796875 
L 9.078125 -20.796875 
L 9.078125 54.6875 
L 18.109375 54.6875 
L 18.109375 46.390625 
Q 20.953125 51.265625 25.265625 53.625 
Q 29.59375 56 35.59375 56 
Q 45.5625 56 51.78125 48.09375 
Q 58.015625 40.1875 58.015625 27.296875 
Q 58.015625 14.40625 51.78125 6.484375 
Q 45.5625 -1.421875 35.59375 -1.421875 
Q 29.59375 -1.421875 25.265625 0.953125 
Q 20.953125 3.328125 18.109375 8.203125 
z
M 48.6875 27.296875 
Q 48.6875 37.203125 44.609375 42.84375 
Q 40.53125 48.484375 33.40625 48.484375 
Q 26.265625 48.484375 22.1875 42.84375 
Q 18.109375 37.203125 18.109375 27.296875 
Q 18.109375 17.390625 22.1875 11.75 
Q 26.265625 6.109375 33.40625 6.109375 
Q 40.53125 6.109375 44.609375 11.75 
Q 48.6875 17.390625 48.6875 27.296875 
z
" id="DejaVuSans-112"/>
     </defs>
     <g transform="translate(754.278125 287.491875)scale(0.09 -0.09)">
      <use xlink:href="#DejaVuSans-109"/>
      <use x="97.412109" xlink:href="#DejaVuSans-114"/>
      <use x="138.525391" xlink:href="#DejaVuSans-112"/>
      <use x="202.001953" xlink:href="#DejaVuSans-116"/>
     </g>
    </g>
    <g id="line2d_97">
     <path d="M 729.078125 297.552187 
L 747.078125 297.552187 
" style="fill:none;stroke:#66ffff;stroke-dasharray:19.2,4.8,3,4.8;stroke-dashoffset:0;stroke-width:3;"/>
    </g>
    <g id="line2d_98">
     <g>
      <use style="fill:#66ffff;stroke:#66ffff;stroke-linejoin:miter;stroke-width:3;" x="738.078125" xlink:href="#m0b50b4a62e" y="297.552187"/>
     </g>
    </g>
    <g id="text_23">
     <!-- NGT-onng -->
     <defs>
      <path d="M 9.8125 72.90625 
L 23.09375 72.90625 
L 55.421875 11.921875 
L 55.421875 72.90625 
L 64.984375 72.90625 
L 64.984375 0 
L 51.703125 0 
L 19.390625 60.984375 
L 19.390625 0 
L 9.8125 0 
z
" id="DejaVuSans-78"/>
      <path d="M 59.515625 10.40625 
L 59.515625 29.984375 
L 43.40625 29.984375 
L 43.40625 38.09375 
L 69.28125 38.09375 
L 69.28125 6.78125 
Q 63.578125 2.734375 56.6875 0.65625 
Q 49.8125 -1.421875 42 -1.421875 
Q 24.90625 -1.421875 15.25 8.5625 
Q 5.609375 18.5625 5.609375 36.375 
Q 5.609375 54.25 15.25 64.234375 
Q 24.90625 74.21875 42 74.21875 
Q 49.125 74.21875 55.546875 72.453125 
Q 61.96875 70.703125 67.390625 67.28125 
L 67.390625 56.78125 
Q 61.921875 61.421875 55.765625 63.765625 
Q 49.609375 66.109375 42.828125 66.109375 
Q 29.4375 66.109375 22.71875 58.640625 
Q 16.015625 51.171875 16.015625 36.375 
Q 16.015625 21.625 22.71875 14.15625 
Q 29.4375 6.6875 42.828125 6.6875 
Q 48.046875 6.6875 52.140625 7.59375 
Q 56.25 8.5 59.515625 10.40625 
z
" id="DejaVuSans-71"/>
     </defs>
     <g transform="translate(754.278125 300.702187)scale(0.09 -0.09)">
      <use xlink:href="#DejaVuSans-78"/>
      <use x="74.804688" xlink:href="#DejaVuSans-71"/>
      <use x="148.669922" xlink:href="#DejaVuSans-84"/>
      <use x="200.628906" xlink:href="#DejaVuSans-45"/>
      <use x="238.587891" xlink:href="#DejaVuSans-111"/>
      <use x="299.769531" xlink:href="#DejaVuSans-110"/>
      <use x="363.148438" xlink:href="#DejaVuSans-110"/>
      <use x="426.527344" xlink:href="#DejaVuSans-103"/>
     </g>
    </g>
    <g id="line2d_99">
     <path d="M 729.078125 310.7625 
L 747.078125 310.7625 
" style="fill:none;stroke:#ffb2ff;stroke-linecap:square;stroke-width:3;"/>
    </g>
    <g id="line2d_100">
     <g>
      <use style="fill:#ffb2ff;stroke:#ffb2ff;stroke-width:3;" x="738.078125" xlink:href="#m6275032afa" y="310.7625"/>
     </g>
    </g>
    <g id="text_24">
     <!-- NGT-panng -->
     <g transform="translate(754.278125 313.9125)scale(0.09 -0.09)">
      <use xlink:href="#DejaVuSans-78"/>
      <use x="74.804688" xlink:href="#DejaVuSans-71"/>
      <use x="148.669922" xlink:href="#DejaVuSans-84"/>
      <use x="200.628906" xlink:href="#DejaVuSans-45"/>
      <use x="236.712891" xlink:href="#DejaVuSans-112"/>
      <use x="300.189453" xlink:href="#DejaVuSans-97"/>
      <use x="361.46875" xlink:href="#DejaVuSans-110"/>
      <use x="424.847656" xlink:href="#DejaVuSans-110"/>
      <use x="488.226562" xlink:href="#DejaVuSans-103"/>
     </g>
    </g>
    <g id="line2d_101">
     <path d="M 729.078125 323.972812 
L 747.078125 323.972812 
" style="fill:none;stroke:#66e599;stroke-linecap:square;stroke-width:3;"/>
    </g>
    <g id="line2d_102">
     <g>
      <use style="fill:#66e599;stroke:#66e599;stroke-width:3;" x="738.078125" xlink:href="#mdf2c663e2c" y="323.972812"/>
     </g>
    </g>
    <g id="text_25">
     <!-- sptag -->
     <g transform="translate(754.278125 327.122812)scale(0.09 -0.09)">
      <use xlink:href="#DejaVuSans-115"/>
      <use x="52.099609" xlink:href="#DejaVuSans-112"/>
      <use x="115.576172" xlink:href="#DejaVuSans-116"/>
      <use x="154.785156" xlink:href="#DejaVuSans-97"/>
      <use x="216.064453" xlink:href="#DejaVuSans-103"/>
     </g>
    </g>
    <g id="line2d_103">
     <path d="M 729.078125 337.183125 
L 747.078125 337.183125 
" style="fill:none;stroke:#b2ff66;stroke-dasharray:3,4.95;stroke-dashoffset:0;stroke-width:3;"/>
    </g>
    <g id="line2d_104">
     <g>
      <use style="fill:#b2ff66;stroke:#b2ff66;stroke-linejoin:bevel;stroke-width:3;" x="738.078125" xlink:href="#m7fd6b6f258" y="337.183125"/>
     </g>
    </g>
    <g id="text_26">
     <!-- SW-graph(nmslib) -->
     <defs>
      <path d="M 53.515625 70.515625 
L 53.515625 60.890625 
Q 47.90625 63.578125 42.921875 64.890625 
Q 37.9375 66.21875 33.296875 66.21875 
Q 25.25 66.21875 20.875 63.09375 
Q 16.5 59.96875 16.5 54.203125 
Q 16.5 49.359375 19.40625 46.890625 
Q 22.3125 44.4375 30.421875 42.921875 
L 36.375 41.703125 
Q 47.40625 39.59375 52.65625 34.296875 
Q 57.90625 29 57.90625 20.125 
Q 57.90625 9.515625 50.796875 4.046875 
Q 43.703125 -1.421875 29.984375 -1.421875 
Q 24.8125 -1.421875 18.96875 -0.25 
Q 13.140625 0.921875 6.890625 3.21875 
L 6.890625 13.375 
Q 12.890625 10.015625 18.65625 8.296875 
Q 24.421875 6.59375 29.984375 6.59375 
Q 38.421875 6.59375 43.015625 9.90625 
Q 47.609375 13.234375 47.609375 19.390625 
Q 47.609375 24.75 44.3125 27.78125 
Q 41.015625 30.8125 33.5 32.328125 
L 27.484375 33.5 
Q 16.453125 35.6875 11.515625 40.375 
Q 6.59375 45.0625 6.59375 53.421875 
Q 6.59375 63.09375 13.40625 68.65625 
Q 20.21875 74.21875 32.171875 74.21875 
Q 37.3125 74.21875 42.625 73.28125 
Q 47.953125 72.359375 53.515625 70.515625 
z
" id="DejaVuSans-83"/>
      <path d="M 3.328125 72.90625 
L 13.28125 72.90625 
L 28.609375 11.28125 
L 43.890625 72.90625 
L 54.984375 72.90625 
L 70.3125 11.28125 
L 85.59375 72.90625 
L 95.609375 72.90625 
L 77.296875 0 
L 64.890625 0 
L 49.515625 63.28125 
L 33.984375 0 
L 21.578125 0 
z
" id="DejaVuSans-87"/>
     </defs>
     <g transform="translate(754.278125 340.333125)scale(0.09 -0.09)">
      <use xlink:href="#DejaVuSans-83"/>
      <use x="63.476562" xlink:href="#DejaVuSans-87"/>
      <use x="158.353516" xlink:href="#DejaVuSans-45"/>
      <use x="194.4375" xlink:href="#DejaVuSans-103"/>
      <use x="257.914062" xlink:href="#DejaVuSans-114"/>
      <use x="299.027344" xlink:href="#DejaVuSans-97"/>
      <use x="360.306641" xlink:href="#DejaVuSans-112"/>
      <use x="423.783203" xlink:href="#DejaVuSans-104"/>
      <use x="487.162109" xlink:href="#DejaVuSans-40"/>
      <use x="526.175781" xlink:href="#DejaVuSans-110"/>
      <use x="589.554688" xlink:href="#DejaVuSans-109"/>
      <use x="686.966797" xlink:href="#DejaVuSans-115"/>
      <use x="739.066406" xlink:href="#DejaVuSans-108"/>
      <use x="766.849609" xlink:href="#DejaVuSans-105"/>
      <use x="794.632812" xlink:href="#DejaVuSans-98"/>
      <use x="858.109375" xlink:href="#DejaVuSans-41"/>
     </g>
    </g>
   </g>
  </g>
 </g>
 <defs>
  <clipPath id="p1ce248137a">
   <rect height="498.96" width="669.6" x="51.378125" y="22.318125"/>
  </clipPath>
 </defs>
</svg>
